<svg width="588" height="588" viewBox="0 0 588 588" fill="none" xmlns="http://www.w3.org/2000/svg">
<g clip-path="url(#clip0)">
<g opacity="0.4">
<path opacity="0.5" d="M359.138 96.2433L363.137 89.7988C363.572 90.3751 364.418 91.1042 364.313 91.4687C363.909 93.6999 363.351 95.9004 362.643 98.0543C362.407 98.7482 361.372 99.6184 361.078 99.395C360.289 98.4394 359.636 97.3787 359.138 96.2433Z" fill="#1E1E1E"/>
<path opacity="0.5" d="M544.158 449.996C545.487 448.667 546.369 447.774 547.239 446.868C547.533 447.727 548.204 448.903 548.027 449.35C547.54 450.434 546.836 451.406 545.957 452.207C545.828 452.337 545.111 451.196 544.158 449.996Z" fill="#1E1E1E"/>
<path opacity="0.5" d="M382.352 350.518C381.753 348.483 381.106 347.354 381.235 346.449C381.365 345.543 382.294 345.038 382.87 344.332C383.199 345.132 383.834 345.967 383.787 346.684C383.466 348.015 382.984 349.303 382.352 350.518Z" fill="#1E1E1E"/>
<path opacity="0.5" d="M344.026 -2.96387C344.744 -1.81347 345.365 -0.60595 345.885 0.646452C345.617 1.28122 345.216 1.85083 344.709 2.31637C343.862 1.31408 343.076 0.261611 342.357 -0.835307C342.815 -1.42331 343.274 -2.01131 344.026 -2.96387Z" fill="#1E1E1E"/>
<path opacity="0.5" d="M357.233 151.939C356.892 150.857 356.186 149.693 356.304 148.729C356.422 147.764 357.48 146.741 358.044 146.741C358.609 146.741 359.667 147.917 359.773 148.74C359.664 149.863 359.349 150.955 358.844 151.963L357.233 151.939Z" fill="#1E1E1E"/>
<path opacity="0.5" d="M395.641 211.244C395.982 213.232 396.429 214.372 396.206 214.902C395.654 215.93 394.987 216.893 394.218 217.771C393.959 216.959 393.336 215.925 393.501 215.419C394.075 213.96 394.792 212.562 395.641 211.244Z" fill="#1E1E1E"/>
<path opacity="0.5" d="M337.805 39.1836C338.318 40.4566 338.674 41.7875 338.864 43.1467C338.864 43.8288 338.017 44.4756 337.547 45.1342C337.007 44.2114 336.611 43.2122 336.371 42.1706C336.265 41.5356 337.029 40.6889 337.805 39.1836Z" fill="#1E1E1E"/>
<path opacity="0.5" d="M394.077 122.421C395.194 121.14 395.782 119.893 396.429 119.822C397.076 119.752 397.723 120.904 398.37 121.528C397.734 122.292 397.194 123.35 396.429 123.715C395.982 123.938 395.277 123.151 394.077 122.421Z" fill="#1E1E1E"/>
<path opacity="0.5" d="M322.376 213.22C323.2 211.856 323.74 210.962 324.27 210.068C324.693 210.715 325.563 211.585 325.446 211.997C325.166 213.05 324.674 214.035 323.999 214.89C323.94 214.996 323.117 214.031 322.376 213.22Z" fill="#1E1E1E"/>
<path opacity="0.5" d="M203.612 205.141C205.235 204.553 206.07 203.859 206.693 204.141C207.316 204.423 207.775 205.682 208.304 206.493C207.599 206.916 206.858 207.669 206.199 207.599C205.541 207.528 204.953 206.47 203.612 205.141Z" fill="#1E1E1E"/>
<path opacity="0.5" d="M536.914 376.319C537.667 375.39 537.984 374.685 538.325 374.661C538.578 374.688 538.82 374.78 539.026 374.928C539.232 375.077 539.396 375.276 539.501 375.508C539.534 376.085 539.372 376.656 539.043 377.131C538.296 376.97 537.578 376.697 536.914 376.319Z" fill="#1E1E1E"/>
<path opacity="0.5" d="M341.122 239.41C340.759 238.548 340.476 237.654 340.275 236.741C340.275 236.482 341.192 235.565 341.345 235.741C341.872 236.313 342.255 237.003 342.462 237.752C342.509 237.928 341.78 238.611 341.122 239.41Z" fill="#1E1E1E"/>
<path opacity="0.5" d="M517.298 400.816C518.345 400.111 518.874 399.511 519.415 399.487C519.709 399.487 520.344 400.581 520.274 400.875C520.085 401.628 519.603 402.663 519.18 402.745C518.757 402.827 518.239 401.828 517.298 400.816Z" fill="#1E1E1E"/>
<path opacity="0.5" d="M517.722 85.1891C516.546 85.977 515.911 86.7297 515.287 86.6944C514.899 86.6944 514.194 85.4478 514.229 84.8481C514.28 84.4444 514.409 84.0547 514.611 83.7014C514.813 83.3482 515.083 83.0385 515.405 82.7901C515.628 82.6137 516.264 83.6485 517.722 85.1891Z" fill="#1E1E1E"/>
<path opacity="0.5" d="M452.418 359.95L454.1 358.845C454.29 359.358 454.439 359.884 454.547 360.421C454.025 360.854 453.471 361.247 452.889 361.597C452.759 361.173 452.654 360.762 452.418 359.95Z" fill="#1E1E1E"/>
<path opacity="0.5" d="M330.75 75.5928L332.29 75.04L332.749 77.6743C332.278 77.7448 331.667 78.1094 331.385 77.8272C331.048 77.1237 330.833 76.3681 330.75 75.5928Z" fill="#1E1E1E"/>
<path opacity="0.5" d="M392.783 135.533C393.277 135.78 393.842 135.98 393.83 136.074C393.764 136.69 393.65 137.299 393.489 137.897C393.195 137.744 392.654 137.662 392.642 137.45C392.622 136.808 392.669 136.165 392.783 135.533Z" fill="#1E1E1E"/>
<path opacity="0.5" d="M218.195 102.653C218.853 102.088 219.288 101.477 219.665 101.477C220.041 101.477 220.276 102.37 220.57 102.852C220.206 103.299 219.829 104.028 219.394 104.028C218.959 104.028 218.736 103.323 218.195 102.653Z" fill="#1E1E1E"/>
<path opacity="0.5" d="M576.31 168.332C576.863 167.779 577.263 167.05 577.604 167.156C577.945 167.262 578.392 167.956 578.78 168.391C578.462 168.885 578.121 169.802 577.827 169.778C577.533 169.755 576.98 169.002 576.31 168.332Z" fill="#1E1E1E"/>
<path opacity="0.5" d="M520.262 23.226C520.372 22.6137 520.545 22.0146 520.779 21.4385C521.589 21.4972 522.394 21.6032 523.19 21.756C523.049 22.2499 522.932 23.0966 522.732 23.1554C521.913 23.2582 521.086 23.2818 520.262 23.226Z" fill="#1E1E1E"/>
<path opacity="0.5" d="M471.164 427.476C471.799 426.817 472.199 426.076 472.622 426.076C473.045 426.076 473.304 426.911 473.657 427.382C473.292 427.852 472.94 428.64 472.54 428.71C472.14 428.781 471.752 428.064 471.164 427.476Z" fill="#1E1E1E"/>
<path opacity="0.5" d="M535.362 173.096L536.632 171.473C536.938 171.978 537.514 172.531 537.49 173.013C537.46 173.312 537.361 173.6 537.2 173.853C537.038 174.106 536.82 174.318 536.561 174.471C536.256 174.554 535.867 173.707 535.362 173.096Z" fill="#1E1E1E"/>
<path opacity="0.5" d="M439.388 200.331C440.094 201.601 440.682 202.283 440.564 202.683C440.435 203.283 439.882 203.977 439.471 204.024C439.059 204.071 438.53 203.189 438.518 202.683C438.674 201.856 438.968 201.06 439.388 200.331Z" fill="#1E1E1E"/>
<path opacity="0.5" d="M420.878 387.774C421.443 387.151 421.854 386.386 422.219 386.41C422.583 386.433 422.924 387.292 423.254 387.797C422.924 388.268 422.583 389.126 422.219 389.138C421.854 389.15 421.443 388.397 420.878 387.774Z" fill="#1E1E1E"/>
<path opacity="0.5" d="M534.268 383.222C533.174 383.928 532.681 384.528 532.41 384.398C531.852 383.898 531.355 383.333 530.928 382.717C531.258 382.517 531.587 382.129 531.869 382.188C532.7 382.455 533.504 382.801 534.268 383.222Z" fill="#1E1E1E"/>
<path opacity="0.5" d="M320.883 326.269C320.507 325.657 320.201 325.175 319.895 324.705L321.283 323.07C321.553 323.611 322.082 324.246 322.024 324.67C321.965 325.093 321.377 325.622 320.883 326.269Z" fill="#1E1E1E"/>
<path opacity="0.5" d="M505.409 347.249C505.844 348.178 506.35 348.766 506.35 349.354C506.35 349.942 505.75 350.342 505.433 350.848C505.091 350.283 504.55 349.777 504.48 349.178C504.409 348.578 504.986 348.096 505.409 347.249Z" fill="#1E1E1E"/>
<path opacity="0.5" d="M269.68 255.604C270.468 254.757 270.962 253.934 271.162 254.051C271.721 254.539 272.201 255.11 272.585 255.745C272.22 256.156 271.855 256.921 271.526 256.921C271.009 256.85 270.479 256.227 269.68 255.604Z" fill="#1E1E1E"/>
<path opacity="0.5" d="M343.968 219.359C344.732 218.56 345.144 217.842 345.696 217.654C345.99 217.548 346.437 218.336 346.872 218.736C346.55 219.417 346.13 220.047 345.626 220.606C345.355 220.771 344.803 220.041 343.968 219.359Z" fill="#1E1E1E"/>
<path opacity="0.5" d="M231.671 203.671L230.319 204.588C230.032 203.942 229.845 203.256 229.766 202.554C229.766 202.177 230.413 201.824 230.778 201.472C231.072 202.107 231.319 202.73 231.671 203.671Z" fill="#1E1E1E"/>
<path opacity="0.5" d="M270.385 210.88C270.762 211.551 271.032 212.277 271.185 213.032C271.185 213.397 270.574 213.808 270.185 213.985C270.08 213.985 269.609 213.279 269.644 212.961C269.807 212.24 270.056 211.541 270.385 210.88Z" fill="#1E1E1E"/>
<path opacity="0.5" d="M308.029 145.235C308.476 145.647 308.735 145.906 308.993 146.153C308.761 146.689 308.49 147.208 308.182 147.705C308.182 147.764 307.453 147.14 307.476 146.952C307.607 146.364 307.792 145.789 308.029 145.235Z" fill="#1E1E1E"/>
<path opacity="0.5" d="M307.3 425.417C306.736 424.676 306.394 424.241 306.124 423.783C306.4 423.268 306.74 422.79 307.135 422.36C307.229 422.266 307.864 422.913 307.864 423.207C307.759 423.962 307.569 424.703 307.3 425.417Z" fill="#1E1E1E"/>
<path opacity="0.5" d="M321.659 253.31C320.906 253.757 320.483 254.31 320.107 254.157C319.73 254.004 319.66 253.145 319.436 252.581C319.73 252.358 320.071 251.84 320.295 251.934C320.518 252.028 321.047 252.628 321.659 253.31Z" fill="#1E1E1E"/>
<path opacity="0.5" d="M331.02 60.3164C331.467 61.1514 331.984 61.7394 331.914 62.1157C331.75 62.6539 331.415 63.1243 330.961 63.4563C330.879 63.4563 330.291 62.8213 330.326 62.5743C330.485 61.8012 330.717 61.0451 331.02 60.3164Z" fill="#1E1E1E"/>
<path opacity="0.5" d="M350.33 367.652C350.624 368.828 351.012 369.534 350.894 370.004C350.777 370.475 350.154 370.675 349.718 370.816C349.468 370.473 349.325 370.064 349.307 369.64C349.567 368.939 349.91 368.271 350.33 367.652Z" fill="#1E1E1E"/>
<path opacity="0.5" d="M564.15 103.158C563.598 102.547 563.257 102.147 562.916 101.747C563.17 101.262 563.49 100.815 563.868 100.418C563.997 100.312 564.609 100.841 564.597 101.088C564.521 101.792 564.372 102.486 564.15 103.158Z" fill="#1E1E1E"/>
<path opacity="0.5" d="M354.775 388.762C355.434 388.197 355.822 387.892 356.198 387.586C356.456 388.093 356.65 388.63 356.774 389.185C356.774 389.373 356.269 389.985 356.057 389.938C355.845 389.891 355.363 389.326 354.775 388.762Z" fill="#1E1E1E"/>
<path opacity="0.5" d="M354.399 48.2156C355.116 47.7099 355.575 47.0396 355.928 47.2277C356.28 47.4159 356.386 48.3097 356.61 48.9094C356.316 49.1329 355.963 49.6268 355.728 49.5327C355.493 49.4386 355.01 48.8271 354.399 48.2156Z" fill="#1E1E1E"/>
<path opacity="0.5" d="M510.536 443.14C510.442 443.328 510.36 443.493 510.266 443.646C510.054 443.416 509.858 443.172 509.678 442.917C509.751 442.746 509.837 442.58 509.937 442.423C510.137 442.67 510.384 442.917 510.536 443.14Z" fill="#1E1E1E"/>
<path opacity="0.5" d="M538.243 348.825C538.455 348.507 538.654 348.19 538.854 347.86C539.137 348.237 539.395 348.601 539.678 348.966C539.419 349.201 539.16 349.613 538.901 349.613C538.643 349.613 538.466 349.107 538.243 348.825Z" fill="#1E1E1E"/>
<path opacity="0.5" d="M412.317 346.591L411.694 347.508C411.501 347.165 411.335 346.807 411.2 346.438C411.2 346.344 411.458 345.885 411.517 345.932C411.805 346.124 412.073 346.345 412.317 346.591Z" fill="#1E1E1E"/>
<path opacity="0.5" d="M582.931 405.237C583.66 404.908 584.107 404.438 584.483 404.602C584.86 404.767 584.907 405.602 584.977 406.166C584.977 406.307 584.378 406.86 584.189 406.743C583.706 406.298 583.283 405.792 582.931 405.237Z" fill="#1E1E1E"/>
<path opacity="0.5" d="M337.711 195.051L337.182 196.227L336.241 195.239C336.488 194.91 336.688 194.38 336.959 194.31C337.229 194.239 337.512 194.792 337.711 195.051Z" fill="#1E1E1E"/>
<path opacity="0.5" d="M433.003 399.063L433.849 398.604C433.943 399.004 434.19 399.51 434.096 399.78C434.002 400.051 433.532 400.321 433.332 400.204C433.132 400.086 433.097 399.451 433.003 399.063Z" fill="#1E1E1E"/>
<path opacity="0.5" d="M365.136 438.565L364.465 437.671L365.477 436.495C365.67 436.885 365.79 437.308 365.829 437.742C365.735 438.083 365.383 438.294 365.136 438.565Z" fill="#1E1E1E"/>
<path opacity="0.5" d="M256.615 0.728292C256.767 0.657732 256.944 0.481332 257.073 0.528372C257.203 0.575412 257.261 0.857652 257.355 1.03405L256.662 1.41037C256.638 1.17517 256.626 0.963492 256.615 0.728292Z" fill="#1E1E1E"/>
<path opacity="0.5" d="M423.924 29.6705C423.759 29.5647 423.559 29.5294 423.489 29.3412C423.444 29.1201 423.444 28.892 423.489 28.6709L424.171 29.1178C424.112 29.2942 424.006 29.4823 423.924 29.6705Z" fill="#1E1E1E"/>
<path opacity="0.5" d="M445.703 33.7975C445.833 33.4094 445.915 32.7508 446.068 32.7038C446.221 32.6567 446.633 32.986 446.903 33.1624C446.785 33.5623 446.715 34.1973 446.538 34.2796C446.362 34.3619 445.95 33.9739 445.703 33.7975Z" fill="#1E1E1E"/>
<path opacity="0.5" d="M534.55 35.4793C534.668 35.0913 534.75 34.4797 534.915 34.4092C535.08 34.3386 535.456 34.6679 535.726 34.8325C535.597 35.2089 535.526 35.8086 535.326 35.9027C535.127 35.9968 534.821 35.644 534.55 35.4793Z" fill="#1E1E1E"/>
<path opacity="0.5" d="M302.996 41.5598C302.694 40.7767 302.516 39.9516 302.467 39.1137C302.558 38.8565 302.7 38.6201 302.884 38.4182C303.067 38.2163 303.289 38.053 303.537 37.9377C303.69 37.8437 304.254 38.514 304.207 38.6198C303.874 39.6273 303.469 40.6098 302.996 41.5598Z" fill="#1E1E1E"/>
<path opacity="0.5" d="M482.606 214.09C482.336 213.902 481.901 213.785 481.818 213.467C481.736 213.15 481.995 212.656 482.101 212.232C482.371 212.421 482.806 212.538 482.889 212.844C482.971 213.15 482.712 213.667 482.606 214.09Z" fill="#1E1E1E"/>
<path opacity="0.5" d="M426.217 217.842C426.323 218.253 426.441 218.665 426.546 219.018C426.241 219.171 425.9 219.559 425.664 219.453C425.429 219.347 425.382 218.677 425.253 218.277L426.217 217.842Z" fill="#1E1E1E"/>
<path opacity="0.5" d="M508.396 232.107L509.113 231.236C509.337 231.73 509.584 232.236 509.819 232.73C509.513 232.883 509.172 233.236 508.902 233.13C508.631 233.024 508.561 232.459 508.396 232.107Z" fill="#1E1E1E"/>
<path opacity="0.5" d="M498.435 265.247C498.318 265.105 498.2 264.988 498.083 264.858C498.238 264.563 498.411 264.276 498.6 264C498.6 264 498.823 264.235 498.941 264.376L498.435 265.247Z" fill="#1E1E1E"/>
<path opacity="0.5" d="M557.423 399.229C557.729 399.052 558.117 398.629 558.294 398.782C558.47 398.935 558.6 399.605 558.741 400.04C558.435 400.193 558.059 400.569 557.847 400.428C557.635 400.287 557.541 399.652 557.423 399.229Z" fill="#1E1E1E"/>
<path opacity="0.5" d="M515.346 339.005C515.264 338.82 515.22 338.62 515.217 338.417C515.217 338.253 515.428 338.147 515.558 338.018C515.64 338.347 515.723 338.676 515.793 339.005H515.346Z" fill="#1E1E1E"/>
<path opacity="0.5" d="M491.568 341.663C491.697 341.545 491.897 341.298 491.92 341.333C492.093 341.606 492.251 341.889 492.391 342.18C492.261 342.298 492.061 342.545 492.05 342.521C491.873 342.245 491.712 341.958 491.568 341.663Z" fill="#1E1E1E"/>
<path opacity="0.5" d="M575.91 168.168C576.192 168.168 576.463 168.262 576.745 168.333C576.725 168.55 576.693 168.765 576.651 168.979C576.361 168.963 576.073 168.916 575.793 168.838C575.828 168.65 575.875 168.438 575.91 168.168Z" fill="#1E1E1E"/>
<path opacity="0.5" d="M401.615 83.7421C401.78 83.1071 401.921 82.3662 402.027 82.3662C402.474 82.4561 402.906 82.6106 403.309 82.8248C403.191 83.2247 403.109 83.9303 402.968 84.0008C402.505 83.9916 402.048 83.9041 401.615 83.7421Z" fill="#1E1E1E"/>
<path opacity="0.5" d="M279.888 99.4301L280.723 98.748C280.875 99.3125 281.028 99.924 281.193 100.441C280.875 100.547 280.487 100.865 280.276 100.688C280.064 100.512 280.017 99.8652 279.888 99.4301Z" fill="#1E1E1E"/>
<path opacity="0.5" d="M264.011 108.015C264.141 107.615 264.188 107.051 264.4 106.839C264.611 106.627 265.105 107.051 265.14 107.274C265.107 107.681 265.004 108.079 264.835 108.45L264.011 108.015Z" fill="#1E1E1E"/>
<path opacity="0.5" d="M336.618 112.261C336.888 111.837 337.204 111.442 337.559 111.085C337.629 111.085 338.205 111.791 338.17 111.979C337.992 112.517 337.747 113.03 337.441 113.508C337.217 113.143 337.006 112.825 336.618 112.261Z" fill="#1E1E1E"/>
<path opacity="0.5" d="M350.871 135.157C351.13 134.91 351.412 134.451 351.647 134.498C351.882 134.546 352.023 135.145 352.2 135.486C351.953 135.733 351.659 136.239 351.447 136.168C351.235 136.098 351.071 135.522 350.871 135.157Z" fill="#1E1E1E"/>
<path opacity="0.5" d="M486.358 136.698L485.993 136.321C486.147 136.032 486.319 135.753 486.511 135.486C486.511 135.486 486.734 135.71 486.852 135.851L486.358 136.698Z" fill="#1E1E1E"/>
<path opacity="0.5" d="M207.293 164.992C207.399 165.404 207.658 165.945 207.552 166.168C207.446 166.392 207.023 166.556 206.74 166.744C206.646 166.333 206.387 165.792 206.482 165.568C206.576 165.345 206.976 165.18 207.293 164.992Z" fill="#1E1E1E"/>
<path opacity="0.5" d="M312.592 184.526L313.192 183.867C313.282 184.03 313.361 184.199 313.427 184.373C313.239 184.614 313.039 184.846 312.827 185.067C312.815 184.89 312.663 184.714 312.592 184.526Z" fill="#1E1E1E"/>
<path opacity="0.5" d="M442.611 354.823L442.258 354.446C442.422 354.152 442.575 353.87 442.752 353.611C442.752 353.611 442.963 353.847 443.081 353.964C442.928 354.27 442.763 354.54 442.611 354.823Z" fill="#1E1E1E"/>
<path opacity="0.5" d="M333.737 373.321C333.737 373.121 333.842 372.816 333.948 372.722C334.054 372.627 334.254 372.722 334.407 372.78C334.313 373.11 334.207 373.439 334.101 373.768L333.737 373.321Z" fill="#1E1E1E"/>
<path opacity="0.5" d="M266.857 274.89C267.01 275.207 267.175 275.513 267.328 275.83C267.21 275.96 266.987 276.219 266.963 276.183C266.778 275.893 266.613 275.591 266.469 275.278C266.599 275.184 266.716 275.007 266.857 274.89Z" fill="#1E1E1E"/>
<path opacity="0.5" d="M387.009 296.458L386.633 296.034C386.795 295.731 386.98 295.44 387.186 295.164C387.186 295.164 387.433 295.399 387.562 295.552L387.009 296.458Z" fill="#1E1E1E"/>
<path opacity="0.5" d="M302.326 408.73L302.855 409.836C302.608 410.071 302.337 410.553 302.126 410.506C301.976 410.388 301.856 410.238 301.772 410.067C301.689 409.896 301.645 409.709 301.643 409.518C301.679 409.248 302.079 409.001 302.326 408.73Z" fill="#1E1E1E"/>
<path opacity="0.5" d="M414.175 409.588C414.082 409.42 414.007 409.243 413.951 409.059C414.136 408.804 414.34 408.564 414.563 408.342C414.657 408.505 414.732 408.679 414.786 408.859C414.602 409.118 414.397 409.362 414.175 409.588Z" fill="#1E1E1E"/>
<path opacity="0.5" d="M303.502 257.544C303.367 257.408 303.253 257.253 303.161 257.085C303.312 256.749 303.485 256.423 303.678 256.109C303.804 256.247 303.922 256.393 304.031 256.544C303.873 256.887 303.696 257.221 303.502 257.544Z" fill="#1E1E1E"/>
<path opacity="0.5" d="M289.296 236.787C289.569 236.723 289.849 236.688 290.13 236.682C290.227 236.891 290.26 237.124 290.225 237.352C290.166 237.54 289.872 237.775 289.848 237.728C289.641 237.429 289.456 237.114 289.296 236.787Z" fill="#1E1E1E"/>
<path opacity="0.5" d="M243.161 426.44L242.702 426.699C242.702 426.346 242.702 425.993 242.702 425.641C242.855 425.641 243.067 425.641 243.161 425.805C243.255 425.97 243.149 426.217 243.161 426.44Z" fill="#1E1E1E"/>
<path opacity="0.5" d="M370.439 419.832C370.545 420.244 370.675 420.655 370.792 421.008C370.498 421.161 370.169 421.502 369.934 421.396C369.699 421.29 369.675 420.691 369.557 420.291C369.828 420.15 370.11 419.973 370.439 419.832Z" fill="#1E1E1E"/>
<path opacity="0.5" d="M549.909 256.45L550.262 255.979C550.368 256.273 550.473 256.567 550.567 256.873C550.415 256.944 550.226 257.108 550.097 257.061C549.968 257.014 549.968 256.662 549.909 256.45Z" fill="#1E1E1E"/>
<path opacity="0.5" d="M549.78 452.184C549.686 452.031 549.462 451.76 549.497 451.702C549.638 451.369 549.803 451.046 549.991 450.737C550.074 451.125 550.179 451.513 550.226 451.913C550.238 451.96 549.956 452.078 549.78 452.184Z" fill="#1E1E1E"/>
<path opacity="0.5" d="M232.706 114.413C232.859 114.707 233.036 115.001 233.2 115.307C233.059 115.424 232.847 115.683 232.824 115.624C232.624 115.351 232.451 115.06 232.307 114.754C232.431 114.631 232.565 114.517 232.706 114.413Z" fill="#1E1E1E"/>
<path opacity="0.5" d="M276.113 123.844L276.407 123.291C276.618 123.55 276.83 123.797 277.053 124.044C276.959 124.22 276.795 124.573 276.771 124.538C276.537 124.321 276.317 124.089 276.113 123.844Z" fill="#1E1E1E"/>
<path opacity="0.5" d="M290.107 128.007L289.296 127.49C289.47 127.155 289.666 126.833 289.883 126.525C289.883 126.525 290.295 126.725 290.283 126.831C290.252 127.227 290.194 127.62 290.107 128.007Z" fill="#1E1E1E"/>
<path opacity="0.5" d="M512.935 418.268C513.077 418.585 513.206 418.914 513.347 419.232C513.094 419.359 512.825 419.45 512.547 419.502C512.477 419.502 512.289 419.044 512.3 419.02C512.5 418.75 512.736 418.515 512.935 418.268Z" fill="#1E1E1E"/>
<path opacity="0.5" d="M432.932 132.982C432.791 133.064 432.603 133.253 432.497 133.182C432.391 133.111 432.297 132.829 432.203 132.641L432.909 132.265C432.92 132.5 432.932 132.747 432.932 132.982Z" fill="#1E1E1E"/>
<path opacity="0.5" d="M282.863 136.874C282.863 136.639 282.969 136.428 283.016 136.192L283.874 136.604L283.745 137.263C283.441 137.158 283.146 137.028 282.863 136.874Z" fill="#1E1E1E"/>
<path opacity="0.5" d="M211.562 149.445L211.844 148.857C212.075 149.111 212.291 149.378 212.491 149.657C212.427 149.862 212.34 150.059 212.232 150.245L211.562 149.445Z" fill="#1E1E1E"/>
<path opacity="0.5" d="M378.06 327.621C377.919 327.621 377.742 327.833 377.637 327.763C377.531 327.692 377.437 327.41 377.343 327.233L378.013 326.928C378.025 327.163 378.036 327.386 378.06 327.621Z" fill="#1E1E1E"/>
<path opacity="0.5" d="M558.6 383.152C558.717 382.987 558.847 382.846 558.952 382.682C559.07 382.987 559.164 383.293 559.27 383.587C559.105 383.658 558.917 383.822 558.788 383.764C558.658 383.705 558.658 383.376 558.6 383.152Z" fill="#1E1E1E"/>
<path opacity="0.5" d="M309.852 -0.00019151C310.099 -0.270672 310.358 -0.729312 310.605 -0.717552C310.852 -0.705792 311.075 -0.200112 311.31 0.105649C311.051 0.364369 310.781 0.846529 310.546 0.823009C310.311 0.799489 310.075 0.340849 309.852 -0.00019151Z" fill="#1E1E1E"/>
<path opacity="0.5" d="M500.246 -0.741211L500.976 0.164309C500.705 0.411269 500.423 0.893429 500.176 0.881669C499.929 0.869909 499.682 0.340709 499.458 0.0467092C499.717 -0.223771 499.976 -0.494251 500.246 -0.741211Z" fill="#1E1E1E"/>
<path opacity="0.5" d="M260.284 6.04405L260.578 5.45605C260.789 5.73829 261.013 5.99701 261.201 6.29101C261.201 6.29101 261.013 6.64381 260.907 6.83197L260.284 6.04405Z" fill="#1E1E1E"/>
<path opacity="0.5" d="M232.753 21.4268L233.118 21.9207C232.912 22.1719 232.683 22.4041 232.436 22.6145C232.436 22.6145 232.212 22.3205 232.095 22.1559C232.318 21.9207 232.542 21.6737 232.753 21.4268Z" fill="#1E1E1E"/>
<path opacity="0.5" d="M437.624 35.6209L436.825 35.127C436.942 34.7506 437.025 34.1038 437.201 34.045C437.377 33.9862 437.766 34.3155 438.036 34.4684C437.907 34.8682 437.766 35.2798 437.624 35.6209Z" fill="#1E1E1E"/>
<path opacity="0.5" d="M557.847 459.887L558.635 460.016C558.635 460.251 558.635 460.675 558.552 460.675C558.287 460.662 558.023 460.627 557.764 460.569C557.8 460.334 557.823 460.11 557.847 459.887Z" fill="#1E1E1E"/>
<path opacity="0.5" d="M412.223 42.2529L413.117 42.4411C413.096 42.6616 413.049 42.8788 412.975 43.0879C412.681 43.0666 412.389 43.0154 412.105 42.935C412.141 42.6998 412.188 42.4764 412.223 42.2529Z" fill="#1E1E1E"/>
<path opacity="0.5" d="M430.921 59.9752C431.007 59.815 431.105 59.6617 431.215 59.5166C431.438 59.7421 431.646 59.9817 431.838 60.234C431.598 60.3546 431.351 60.4607 431.098 60.5515C431.019 60.3661 430.96 60.173 430.921 59.9752Z" fill="#1E1E1E"/>
<path opacity="0.5" d="M383.599 279.111L383.434 279.593C383.317 279.511 383.152 279.452 383.117 279.323C383.081 279.194 383.211 279.017 383.258 278.853L383.599 279.111Z" fill="#1E1E1E"/>
<path opacity="0.5" d="M332.878 205.188C332.749 205.07 332.631 204.964 332.513 204.835C332.654 204.551 332.82 204.279 333.007 204.023C333.007 204.023 333.243 204.223 333.36 204.341C333.207 204.623 333.031 204.905 332.878 205.188Z" fill="#1E1E1E"/>
<path opacity="0.5" d="M369.781 96.1732C369.628 96.0791 369.416 96.0321 369.346 95.8675C369.275 95.7028 369.346 95.4559 369.404 95.2324L370.098 95.7028L369.781 96.1732Z" fill="#1E1E1E"/>
<path opacity="0.5" d="M270.632 281.523C270.844 281.323 271.044 281.099 271.256 280.888C271.338 281.051 271.408 281.22 271.467 281.393C271.285 281.639 271.081 281.868 270.856 282.075C270.785 281.887 270.715 281.711 270.632 281.523Z" fill="#1E1E1E"/>
<path opacity="0.5" d="M354.787 127.349C354.705 127.114 354.54 126.902 354.552 126.702C354.564 126.502 354.752 126.361 354.869 126.185C354.834 126.573 354.81 127.008 354.787 127.349Z" fill="#1E1E1E"/>
<path opacity="0.5" d="M584.707 127.795L584.283 127.537L584.86 126.808C584.93 126.996 585.083 127.219 585.048 127.384C585.013 127.548 584.824 127.666 584.707 127.795Z" fill="#1E1E1E"/>
<path opacity="0.5" d="M341.31 134.828L341.651 135.24C341.522 135.357 341.38 135.557 341.263 135.545C341.145 135.534 341.039 135.287 340.922 135.146L341.31 134.828Z" fill="#1E1E1E"/>
<path opacity="0.5" d="M251.923 114.25L251.781 113.672L252.171 113.743L251.923 114.25Z" fill="#1E1E1E"/>
<path opacity="0.5" d="M299.009 212.338L298.668 212.597C298.668 212.303 298.574 211.997 298.515 211.715C298.656 211.715 298.821 211.715 298.927 211.832C298.979 211.996 299.007 212.166 299.009 212.338Z" fill="#1E1E1E"/>
<path opacity="0.5" d="M429.486 252.84L429.898 252.593C429.898 252.91 429.969 253.24 429.992 253.557C429.851 253.557 429.663 253.557 429.557 253.404C429.451 253.251 429.498 252.981 429.486 252.84Z" fill="#1E1E1E"/>
<path opacity="0.5" d="M374.403 215.772C374.473 216.161 374.52 216.372 374.556 216.56L374.191 216.713L374.403 215.772Z" fill="#1E1E1E"/>
<path opacity="0.5" d="M572.97 153.832L572.864 154.455C572.711 154.396 572.5 154.385 572.417 154.232C572.335 154.079 572.476 153.82 572.512 153.608L572.97 153.832Z" fill="#1E1E1E"/>
<path opacity="0.5" d="M374.567 144.165L374.967 144.365C374.814 144.6 374.673 144.824 374.532 145.071C374.426 144.906 374.332 144.741 374.226 144.588L374.567 144.165Z" fill="#1E1E1E"/>
<path opacity="0.5" d="M278.947 10.0664L279.323 10.2428L278.794 10.6662C278.853 10.4662 278.9 10.2546 278.947 10.0664Z" fill="#1E1E1E"/>
<path opacity="0.5" d="M285.273 2.23432L285.591 1.69336C285.698 1.89695 285.758 2.12198 285.767 2.35192C285.767 2.52832 285.567 2.70472 285.473 2.88112C285.438 2.63416 285.356 2.42248 285.273 2.23432Z" fill="#1E1E1E"/>
<path opacity="0.5" d="M217.089 460.839C216.959 460.752 216.833 460.657 216.713 460.557L217.254 459.934C217.254 460.11 217.442 460.333 217.418 460.474C217.395 460.616 217.207 460.733 217.089 460.839Z" fill="#1E1E1E"/>
<path opacity="0.5" d="M521.685 410.905C521.755 411.305 521.802 411.505 521.838 411.717L521.438 411.858C521.52 411.599 521.579 411.329 521.685 410.905Z" fill="#1E1E1E"/>
<path opacity="0.5" d="M528.023 455.018C527.941 454.818 527.788 454.606 527.812 454.43C527.835 454.253 528 454.088 528.094 453.936C528.165 454.124 528.317 454.335 528.306 454.512C528.294 454.688 528.141 454.853 528.023 455.018Z" fill="#1E1E1E"/>
<path opacity="0.5" d="M342.733 209.221C342.733 209.033 342.604 208.739 342.651 208.68C342.77 208.575 342.917 208.505 343.074 208.48C343.137 208.654 343.172 208.837 343.18 209.021C343.049 209.123 342.896 209.192 342.733 209.221Z" fill="#1E1E1E"/>
<path opacity="0.5" d="M281.393 218.853C281.534 218.853 281.746 218.641 281.793 218.712C281.872 218.919 281.924 219.137 281.946 219.358C281.804 219.417 281.593 219.57 281.546 219.511C281.465 219.3 281.413 219.078 281.393 218.853Z" fill="#1E1E1E"/>
<path opacity="0.5" d="M439.753 169.132C439.658 168.972 439.59 168.797 439.553 168.615C439.553 168.45 439.718 168.309 439.8 168.168C439.823 168.485 439.823 168.803 439.753 169.132Z" fill="#1E1E1E"/>
<path opacity="0.5" d="M292.2 278.065C292.341 278.065 292.541 277.853 292.612 277.924C292.706 278.119 292.761 278.331 292.776 278.547C292.635 278.617 292.435 278.782 292.365 278.7C292.27 278.501 292.214 278.285 292.2 278.065Z" fill="#1E1E1E"/>
<path opacity="0.5" d="M305.818 294.823L306.112 294.306C306.195 294.494 306.348 294.694 306.336 294.882C306.324 295.07 306.159 295.223 306.065 295.399L305.818 294.823Z" fill="#1E1E1E"/>
<path opacity="0.5" d="M455.441 329.068C455.606 329.15 455.76 329.198 455.925 329.269C455.781 329.172 455.631 329.086 455.476 329.009L455.441 329.068Z" fill="#1E1E1E"/>
<path opacity="0.5" d="M422.183 260.718L422.607 260.53C422.607 260.718 422.736 261.012 422.689 261.06C422.642 261.107 422.43 261.212 422.289 261.271C422.183 261.071 422.183 260.895 422.183 260.718Z" fill="#1E1E1E"/>
<path opacity="0.5" d="M471.811 99.4424C472.152 101.43 472.598 102.571 472.375 103.1C471.831 104.13 471.168 105.094 470.399 105.969C470.141 105.158 469.517 104.123 469.682 103.617C470.258 102.161 470.97 100.763 471.811 99.4424Z" fill="#1E1E1E"/>
<path opacity="0.5" d="M515.57 88.5293C516.264 89.7994 516.852 90.4815 516.746 90.8813C516.616 91.4811 516.064 92.1749 515.652 92.2219C515.24 92.269 514.723 91.387 514.699 90.8813C514.857 90.0544 515.151 89.2595 515.57 88.5293Z" fill="#1E1E1E"/>
<path opacity="0.5" d="M420.137 107.557C420.902 106.757 421.313 106.04 421.878 105.851C422.16 105.746 422.619 106.534 422.983 106.933C422.661 107.614 422.241 108.244 421.737 108.803C421.525 108.968 421.008 108.192 420.137 107.557Z" fill="#1E1E1E"/>
<path opacity="0.5" d="M502.387 106.04C502.492 106.452 502.61 106.863 502.716 107.216C502.41 107.381 502.069 107.769 501.834 107.651C501.599 107.534 501.563 106.887 501.434 106.475L502.387 106.04Z" fill="#1E1E1E"/>
<path opacity="0.5" d="M459.815 167.309C459.815 167.474 459.71 167.627 459.651 167.792C459.545 167.709 459.369 167.65 459.333 167.521C459.298 167.392 459.427 167.215 459.474 167.051L459.815 167.309Z" fill="#1E1E1E"/>
<path opacity="0.5" d="M505.679 140.99L506.091 140.743L506.197 141.707C506.044 141.707 505.856 141.707 505.75 141.555C505.644 141.402 505.679 141.178 505.679 140.99Z" fill="#1E1E1E"/>
<path opacity="0.5" d="M450.572 103.97C450.643 104.358 450.69 104.569 450.725 104.758L450.372 104.911C450.407 104.664 450.478 104.393 450.572 103.97Z" fill="#1E1E1E"/>
<path opacity="0.5" d="M498.294 148.917L498.718 148.729C498.718 148.917 498.847 149.211 498.8 149.258C498.753 149.305 498.541 149.399 498.4 149.458C498.365 149.269 498.341 149.093 498.294 148.917Z" fill="#1E1E1E"/>
<path opacity="0.5" d="M104.323 169.179L100.312 175.612C99.889 175.047 99.0306 174.318 99.1364 173.942C99.543 171.711 100.101 169.511 100.806 167.356C101.042 166.663 102.076 165.792 102.359 166.028C103.157 166.981 103.818 168.042 104.323 169.179Z" fill="#1E1E1E"/>
<path opacity="0.5" d="M372.968 274.008C372.474 273.008 371.968 272.443 371.992 271.903C371.994 270.627 372.168 269.357 372.509 268.128C373.051 266.649 373.672 265.201 374.367 263.788C374.661 264.094 375.155 264.376 375.179 264.705C375.385 266.609 375.385 268.529 375.179 270.433C374.896 271.656 373.838 272.608 372.968 274.008Z" fill="#1E1E1E"/>
<path opacity="0.5" d="M222.44 481.16L220.605 477.856C221.392 476.765 222.308 475.774 223.334 474.904C223.545 474.751 224.992 476.985 224.851 477.409C224.207 478.755 223.397 480.015 222.44 481.16Z" fill="#1E1E1E"/>
<path opacity="0.5" d="M260.013 296.116C259.155 297.222 258.614 298.468 258.002 298.562C257.391 298.656 256.673 297.516 255.991 296.916C256.532 295.822 257.085 294.705 257.614 293.611L260.013 296.116Z" fill="#1E1E1E"/>
<path opacity="0.5" d="M119.422 268.387C118.714 267.231 118.093 266.024 117.564 264.776C117.832 264.142 118.233 263.573 118.74 263.106C119.585 264.106 120.37 265.155 121.092 266.246C120.634 266.834 120.175 267.434 119.422 268.387Z" fill="#1E1E1E"/>
<path opacity="0.5" d="M106.216 109.956C106.557 111.038 107.263 112.202 107.157 113.167C107.051 114.131 105.981 115.154 105.404 115.142C104.828 115.131 103.793 113.966 103.688 113.143C103.793 112.027 104.1 110.939 104.593 109.933L106.216 109.956Z" fill="#1E1E1E"/>
<path opacity="0.5" d="M54.3072 425.618C53.4016 426.523 52.6725 427.629 52.4256 427.452C51.6617 426.803 51.1124 425.938 50.8497 424.971C50.7086 424.442 51.4259 423.454 51.7552 422.678C52.4961 423.524 53.2252 424.359 54.3072 425.618Z" fill="#1E1E1E"/>
<path opacity="0.5" d="M206.599 273.82C205.764 274.219 204.87 275.113 204.118 274.878C203.365 274.643 202.836 273.302 202.624 272.244C202.507 271.726 203.365 270.092 203.706 270.139C204.388 270.245 205.023 271.15 205.67 271.726C205.988 272.42 206.305 273.126 206.599 273.82Z" fill="#1E1E1E"/>
<path opacity="0.5" d="M67.8077 54.1665C67.4784 52.179 67.0316 51.0501 67.255 50.5091C67.7982 49.4753 68.4656 48.5117 69.2424 47.6396C69.5011 48.4628 70.1244 49.486 69.9598 50.0505C69.3844 51.4921 68.6633 52.8713 67.8077 54.1665Z" fill="#1E1E1E"/>
<path opacity="0.5" d="M125.655 226.239C125.145 224.96 124.785 223.626 124.585 222.264C124.585 221.582 125.432 220.935 125.902 220.288C126.443 221.206 126.84 222.201 127.078 223.24C127.196 223.875 126.431 224.733 125.655 226.239Z" fill="#1E1E1E"/>
<path opacity="0.5" d="M69.3835 142.99C68.2075 144.283 67.6783 145.518 67.0315 145.589C66.3847 145.659 65.7379 144.507 65.0793 143.895C65.7261 143.131 66.2554 142.073 67.0198 141.708C67.4784 141.473 68.2075 142.296 69.3835 142.99Z" fill="#1E1E1E"/>
<path opacity="0.5" d="M14.8171 335.63C14.0527 336.441 13.3823 337.311 13.3118 337.217C12.5667 336.232 11.9132 335.181 11.3596 334.077C11.3596 334.077 12.2416 332.702 12.3475 332.784C13.2199 333.689 14.0443 334.638 14.8171 335.63Z" fill="#1E1E1E"/>
<path opacity="0.5" d="M141.12 52.2025L139.214 55.3542C138.791 54.6956 137.933 53.8371 138.038 53.4138C138.308 52.3805 138.784 51.4125 139.438 50.5679C139.508 50.4267 140.343 51.4499 141.12 52.2025Z" fill="#1E1E1E"/>
<path opacity="0.5" d="M258.414 307.088C257.003 307.688 256.309 308.264 255.732 308.135C255.385 307.953 255.084 307.695 254.851 307.379C254.619 307.063 254.462 306.698 254.392 306.312C254.452 305.46 254.671 304.626 255.039 303.854C255.662 304.478 256.297 305.066 258.414 307.088Z" fill="#1E1E1E"/>
<path opacity="0.5" d="M259.896 60.2813C258.273 60.8576 257.438 61.5632 256.814 61.2809C256.191 60.9987 255.732 59.7404 255.203 58.9289C255.909 58.5173 256.65 57.7529 257.308 57.8352C257.967 57.9176 258.508 58.9524 259.896 60.2813Z" fill="#1E1E1E"/>
<path opacity="0.5" d="M256.215 465.99C255.643 466.801 254.998 467.557 254.286 468.247C254.157 468.353 253.275 467.071 253.333 466.977C253.712 466.074 254.202 465.22 254.792 464.437C254.862 464.355 255.509 465.19 256.215 465.99Z" fill="#1E1E1E"/>
<path opacity="0.5" d="M62.6333 392.267C61.3161 392.76 60.6105 393.384 60.2107 393.101C59.8109 392.819 59.5404 391.655 59.2346 390.891C59.6815 390.597 60.1872 389.985 60.5517 390.126C60.9163 390.267 61.5396 391.079 62.6333 392.267Z" fill="#1E1E1E"/>
<path opacity="0.5" d="M245.101 270.209L246.148 267.363C246.477 267.822 247.112 268.339 247.077 268.727C246.92 269.684 246.664 270.622 246.313 271.526L245.101 270.209Z" fill="#1E1E1E"/>
<path opacity="0.5" d="M122.303 26.0127C122.68 26.8699 122.964 27.7648 123.15 28.6822C123.15 28.9409 122.245 29.8582 122.08 29.6701C121.548 29.1036 121.168 28.4119 120.975 27.6591C120.939 27.4827 121.68 26.8124 122.303 26.0127Z" fill="#1E1E1E"/>
<path opacity="0.5" d="M132.699 189.83C132.076 190.053 131.617 190.206 131.159 190.382C131.018 189.5 130.853 188.618 130.712 187.736C131.171 187.736 131.782 187.301 132.076 187.607C132.41 188.307 132.621 189.058 132.699 189.83Z" fill="#1E1E1E"/>
<path opacity="0.5" d="M70.6535 129.877C70.1478 129.63 69.5951 129.442 69.6069 129.336C69.6722 128.724 69.7902 128.118 69.9597 127.525C70.2419 127.667 70.7711 127.761 70.7946 127.961C70.8032 128.602 70.756 129.244 70.6535 129.877Z" fill="#1E1E1E"/>
<path opacity="0.5" d="M245.254 162.77C244.607 163.334 244.172 163.946 243.796 163.946C243.42 163.946 243.185 163.052 242.879 162.558C243.267 162.123 243.631 161.382 244.055 161.382C244.478 161.382 244.713 162.099 245.254 162.77Z" fill="#1E1E1E"/>
<path opacity="0.5" d="M24.0604 65.0794C23.3548 63.8211 22.7786 63.139 22.8844 62.7274C23.0138 62.1394 23.5665 61.4338 23.9663 61.3985C24.3662 61.3632 24.9071 62.2217 24.9189 62.7274C24.7689 63.5546 24.4786 64.3501 24.0604 65.0794Z" fill="#1E1E1E"/>
<path opacity="0.5" d="M99.3127 470.717C97.9368 471.987 97.5017 472.692 97.1489 472.61C96.7961 472.528 96.2669 471.563 96.3374 471.164C96.3988 470.88 96.5268 470.614 96.7108 470.389C96.8948 470.164 97.1296 469.986 97.3958 469.87C97.8545 469.764 98.3602 470.258 99.3127 470.717Z" fill="#1E1E1E"/>
<path opacity="0.5" d="M193.769 9.80731C192.993 10.654 192.511 11.489 192.287 11.3596C191.735 10.8733 191.259 10.3063 190.876 9.67795C191.241 9.26635 191.605 8.50195 191.923 8.50195C192.452 8.57251 192.934 9.18403 193.769 9.80731Z" fill="#1E1E1E"/>
<path opacity="0.5" d="M221.182 365.066C220.147 365.16 219.594 365.454 219.312 365.183C218.897 364.672 218.639 364.051 218.571 363.396C218.571 363.172 219.418 362.349 219.547 362.479C220.171 363.288 220.718 364.154 221.182 365.066Z" fill="#1E1E1E"/>
<path opacity="0.5" d="M119.481 46.0522C118.728 46.8519 118.305 47.581 117.752 47.7692C117.458 47.875 117.023 47.0754 116.635 46.6873C116.963 46.0099 117.383 45.3808 117.882 44.8174C118.093 44.6881 118.658 45.3819 119.481 46.0522Z" fill="#1E1E1E"/>
<path opacity="0.5" d="M122.739 372.603C122.339 371.662 121.868 371.051 121.904 370.486C121.939 369.922 122.468 369.31 122.774 368.781C123.091 369.322 123.632 369.863 123.644 370.416C123.466 371.19 123.16 371.929 122.739 372.603Z" fill="#1E1E1E"/>
<path opacity="0.5" d="M231.754 61.7395L233.083 60.834C233.384 61.4764 233.578 62.1635 233.659 62.8685C233.659 63.233 233 63.5858 232.648 63.9386C232.389 63.3153 232.13 62.6921 231.754 61.7395Z" fill="#1E1E1E"/>
<path opacity="0.5" d="M218.571 306.583C218.853 307.43 219.288 308.182 219.171 308.57C219.053 308.959 218.383 309.688 217.995 309.582C217.606 309.476 217.207 308.5 217.265 308.006C217.324 307.512 217.971 307.183 218.571 306.583Z" fill="#1E1E1E"/>
<path opacity="0.5" d="M-0.6826 415.869C-1.16206 415.19 -1.55698 414.455 -1.8586 413.681C-1.9174 413.399 -1.153 412.329 -0.96484 412.423C-0.390669 412.795 0.0628659 413.326 0.34052 413.952C0.0770364 414.629 -0.266438 415.273 -0.6826 415.869Z" fill="#1E1E1E"/>
<path opacity="0.5" d="M193.075 54.5424C192.703 53.8731 192.433 53.1516 192.276 52.4021C192.276 52.0257 192.887 51.6141 193.275 51.4377C193.381 51.3789 193.851 52.1551 193.816 52.4609C193.644 53.1792 193.396 53.8771 193.075 54.5424Z" fill="#1E1E1E"/>
<path opacity="0.5" d="M155.431 120.198C154.985 119.787 154.714 119.516 154.455 119.269C154.694 118.73 154.969 118.207 155.279 117.705C155.279 117.705 155.996 118.27 155.972 118.458C155.852 119.055 155.67 119.638 155.431 120.198Z" fill="#1E1E1E"/>
<path opacity="0.5" d="M61.5984 319.942C61.4196 320.389 61.2074 320.822 60.9634 321.236C60.5394 320.92 60.1458 320.566 59.7874 320.178C59.9755 319.825 60.199 319.119 60.3518 319.155C60.8062 319.35 61.2269 319.616 61.5984 319.942Z" fill="#1E1E1E"/>
<path opacity="0.5" d="M51.5435 356.551C50.9908 357.163 50.6144 357.95 50.2381 357.927C49.8618 357.903 49.5796 357.068 49.2385 356.575C49.5796 356.092 49.8971 355.246 50.2499 355.222C50.6027 355.199 51.0025 355.963 51.5435 356.551Z" fill="#1E1E1E"/>
<path opacity="0.5" d="M56.9413 386.527C56.6944 385.633 56.3063 384.787 56.4356 384.598C56.5662 384.394 56.7383 384.219 56.941 384.085C57.1436 383.951 57.3721 383.862 57.6116 383.822C57.7528 383.822 58.1761 384.74 58.1173 384.881C57.7719 385.461 57.3785 386.012 56.9413 386.527Z" fill="#1E1E1E"/>
<path opacity="0.5" d="M141.79 12.112C142.554 11.6651 143.025 11.1124 143.342 11.2652C143.66 11.4181 143.801 12.2766 144.012 12.8293C143.73 13.0645 143.377 13.5702 143.154 13.4879C142.754 13.3232 142.437 12.794 141.79 12.112Z" fill="#1E1E1E"/>
<path opacity="0.5" d="M132.429 205.106C131.994 204.259 131.476 203.671 131.547 203.307C131.705 202.768 132.035 202.297 132.488 201.966C132.558 201.895 133.158 202.589 133.134 202.836C132.976 203.615 132.74 204.375 132.429 205.106Z" fill="#1E1E1E"/>
<path opacity="0.5" d="M109.062 217.242C108.333 217.748 107.886 218.418 107.533 218.218C107.18 218.019 107.063 217.125 106.851 216.537C107.145 216.313 107.486 215.819 107.733 215.902C107.98 215.984 108.45 216.584 109.062 217.242Z" fill="#1E1E1E"/>
<path opacity="0.5" d="M125.737 70.3713L126.278 69.1953L127.207 70.1832C126.972 70.5124 126.76 71.0299 126.49 71.1004C126.219 71.171 125.996 70.6183 125.737 70.3713Z" fill="#1E1E1E"/>
<path opacity="0.5" d="M122.703 376.037C122.797 375.861 122.88 375.672 122.962 375.496C123.171 375.738 123.363 375.993 123.538 376.261C123.477 376.439 123.394 376.608 123.291 376.766C123.103 376.519 122.892 376.319 122.703 376.037Z" fill="#1E1E1E"/>
<path opacity="0.5" d="M154.055 278.712C154.326 279.112 154.726 279.465 154.702 279.747C154.679 280.029 154.314 280.394 154.091 280.711C153.879 280.382 153.514 280.053 153.503 279.712C153.491 279.371 153.891 279.041 154.055 278.712Z" fill="#1E1E1E"/>
<path opacity="0.5" d="M206.846 264.682C206.693 264.764 206.517 264.941 206.388 264.894C206.258 264.847 206.188 264.564 206.094 264.376L206.811 264C206.811 264.228 206.823 264.455 206.846 264.682Z" fill="#1E1E1E"/>
<path opacity="0.5" d="M39.5365 235.74C39.6894 235.846 39.9011 235.905 39.9599 236.07C40.0055 236.291 40.0055 236.519 39.9599 236.74L39.2778 236.305C39.3484 236.117 39.4307 235.94 39.5365 235.74Z" fill="#1E1E1E"/>
<path opacity="0.5" d="M17.7923 231.672C17.6747 232.06 17.5924 232.706 17.4395 232.753C17.2866 232.801 16.875 232.459 16.5928 232.295C16.7221 231.919 16.7927 231.26 16.9691 231.189C17.1455 231.119 17.5101 231.448 17.7923 231.672Z" fill="#1E1E1E"/>
<path opacity="0.5" d="M160.453 223.875C160.747 225.051 161.111 225.815 160.982 226.298C160.894 226.555 160.754 226.791 160.573 226.993C160.391 227.195 160.17 227.359 159.924 227.474C159.759 227.556 159.206 226.886 159.242 226.791C159.58 225.794 159.985 224.819 160.453 223.875Z" fill="#1E1E1E"/>
<path opacity="0.5" d="M37.2433 47.5804C37.1375 47.1806 37.0199 46.7572 36.9141 46.3456C37.2081 46.181 37.5609 45.7929 37.7961 45.9105C38.0313 46.0281 38.0665 46.6867 38.1959 47.0865L37.2433 47.5804Z" fill="#1E1E1E"/>
<path opacity="0.5" d="M61.8453 181.68C61.6571 182.303 61.5278 183.055 61.4219 183.055C60.9798 182.961 60.5526 182.806 60.1519 182.597C60.2577 182.197 60.34 181.421 60.4929 181.421C60.9549 181.431 61.412 181.519 61.8453 181.68Z" fill="#1E1E1E"/>
<path opacity="0.5" d="M183.55 165.992L182.726 166.663C182.574 166.11 182.409 165.545 182.256 164.981C182.562 164.875 182.962 164.558 183.162 164.722C183.361 164.887 183.456 165.545 183.55 165.992Z" fill="#1E1E1E"/>
<path opacity="0.5" d="M199.437 157.395C199.32 157.807 199.261 158.371 199.049 158.571C198.837 158.771 198.344 158.348 198.32 158.124C198.354 157.718 198.458 157.32 198.626 156.948L199.437 157.395Z" fill="#1E1E1E"/>
<path opacity="0.5" d="M126.831 153.15C126.568 153.576 126.256 153.971 125.902 154.326C125.831 154.396 125.243 153.632 125.291 153.444C125.467 152.911 125.708 152.401 126.008 151.927L126.831 153.15Z" fill="#1E1E1E"/>
<path opacity="0.5" d="M112.578 130.265C112.319 130.512 112.037 130.971 111.813 130.924C111.59 130.877 111.437 130.289 111.249 129.936C111.508 129.677 111.802 129.183 112.013 129.242C112.225 129.301 112.39 129.901 112.578 130.265Z" fill="#1E1E1E"/>
<path opacity="0.5" d="M256.156 100.418C256.05 100.007 255.803 99.4775 255.897 99.2423C255.991 99.0071 256.426 98.8424 256.72 98.666C256.814 99.0659 257.073 99.6068 256.979 99.842C256.885 100.077 256.45 100.242 256.156 100.418Z" fill="#1E1E1E"/>
<path opacity="0.5" d="M150.869 80.8965L150.257 81.5433C150.164 81.3875 150.089 81.2218 150.034 81.0493C150.217 80.8037 150.413 80.5682 150.622 80.3438L150.869 80.8965Z" fill="#1E1E1E"/>
<path opacity="0.5" d="M159.935 7.91406C160.067 8.05593 160.185 8.20944 160.288 8.3727C160.135 8.7255 159.947 9.0195 159.771 9.36054C159.653 9.20766 159.394 8.94894 159.418 8.91366C159.583 8.57262 159.771 8.23158 159.935 7.91406Z" fill="#1E1E1E"/>
<path opacity="0.5" d="M95.1026 298.515L94.2559 298.398C94.264 298.175 94.2995 297.954 94.3617 297.739C94.6386 297.743 94.9144 297.774 95.1849 297.833C95.1496 298.069 95.1261 298.292 95.1026 298.515Z" fill="#1E1E1E"/>
<path opacity="0.5" d="M174.189 28.6348C173.91 28.6945 173.627 28.726 173.342 28.7289C173.249 28.5183 173.221 28.2853 173.26 28.0586C173.26 27.8822 173.612 27.647 173.636 27.6823C173.836 27.9645 174.047 28.3055 174.189 28.6348Z" fill="#1E1E1E"/>
<path opacity="0.5" d="M113.156 295.389L112.778 295.212L113.085 294.952L113.156 295.389Z" fill="#1E1E1E"/>
<path opacity="0.5" d="M55.3303 293.364C55.1096 293.591 54.8739 293.804 54.6247 293.999C54.5194 293.839 54.4289 293.67 54.3542 293.494C54.5709 293.259 54.8027 293.039 55.0481 292.835C55.1528 293.005 55.2471 293.182 55.3303 293.364Z" fill="#1E1E1E"/>
<path opacity="0.5" d="M97.3958 284.227C97.1606 284.474 96.9136 284.932 96.6784 284.932C96.4432 284.932 96.2198 284.415 95.9963 284.121C96.2433 283.862 96.4903 283.392 96.7255 283.404C96.9607 283.415 97.1841 283.921 97.3958 284.227Z" fill="#1E1E1E"/>
<path opacity="0.5" d="M189.806 331.714C190.1 331.902 190.5 331.996 190.653 332.325C190.805 332.655 190.5 333.36 190.323 333.419C190.147 333.478 189.747 333.16 189.465 332.996C189.571 332.572 189.7 332.149 189.806 331.714Z" fill="#1E1E1E"/>
<path opacity="0.5" d="M230.754 151.01L230.26 150.116C230.401 149.987 230.613 149.74 230.637 149.787C230.828 150.07 231.001 150.364 231.154 150.669L230.754 151.01Z" fill="#1E1E1E"/>
<path opacity="0.5" d="M187.348 141.579L187.054 142.12C186.831 141.873 186.619 141.626 186.407 141.367C186.486 141.194 186.581 141.029 186.689 140.873C186.913 141.12 187.125 141.343 187.348 141.579Z" fill="#1E1E1E"/>
<path opacity="0.5" d="M173.354 137.415L174.153 137.944C173.985 138.272 173.792 138.586 173.577 138.885C173.577 138.956 173.165 138.685 173.165 138.591C173.204 138.196 173.267 137.803 173.354 137.415Z" fill="#1E1E1E"/>
<path opacity="0.5" d="M30.5754 132.429C30.7166 132.347 30.893 132.159 31.0106 132.241C31.1282 132.323 31.1987 132.582 31.2928 132.794C31.0576 132.9 30.8224 133.029 30.5872 133.158C30.5754 132.888 30.5754 132.676 30.5754 132.429Z" fill="#1E1E1E"/>
<path opacity="0.5" d="M180.598 128.548C180.598 128.772 180.492 128.995 180.433 129.219L179.575 128.819L179.704 128.16C180.01 128.27 180.309 128.4 180.598 128.548Z" fill="#1E1E1E"/>
<path opacity="0.5" d="M251.887 115.976C251.793 116.165 251.699 116.365 251.616 116.564C251.382 116.31 251.166 116.039 250.97 115.753C250.97 115.753 251.134 115.377 251.228 115.177L251.887 115.976Z" fill="#1E1E1E"/>
<path opacity="0.5" d="M153.609 265.364C153.362 265.635 153.091 266.105 152.856 266.082C152.621 266.058 152.386 265.576 152.15 265.27C152.409 265.012 152.668 264.541 152.915 264.553C153.162 264.565 153.373 265.07 153.609 265.364Z" fill="#1E1E1E"/>
<path opacity="0.5" d="M203.165 259.366L202.883 259.954C202.656 259.691 202.447 259.412 202.26 259.119C202.34 258.932 202.435 258.751 202.542 258.578C202.754 258.849 202.954 259.119 203.165 259.366Z" fill="#1E1E1E"/>
<path opacity="0.5" d="M230.695 243.996C230.578 243.832 230.448 243.667 230.343 243.502C230.548 243.251 230.772 243.015 231.013 242.797C231.072 242.797 231.248 243.103 231.366 243.267L230.695 243.996Z" fill="#1E1E1E"/>
<path opacity="0.5" d="M25.8716 229.802L26.6712 230.284C26.5536 230.672 26.4713 231.307 26.2832 231.378C26.095 231.448 25.7304 231.095 25.46 230.942C25.554 230.554 25.6952 230.178 25.8716 229.802Z" fill="#1E1E1E"/>
<path opacity="0.5" d="M51.2378 223.169L50.3206 222.981C50.3794 222.746 50.4264 222.322 50.4852 222.322C50.7799 222.349 51.0714 222.404 51.3554 222.487C51.3084 222.722 51.2731 222.934 51.2378 223.169Z" fill="#1E1E1E"/>
<path opacity="0.5" d="M32.5394 205.506C32.4335 205.659 32.2571 205.976 32.2336 205.941C32.0122 205.726 31.8077 205.494 31.6221 205.247C31.869 205.141 32.116 205 32.363 204.918C32.4337 205.11 32.4927 205.307 32.5394 205.506Z" fill="#1E1E1E"/>
<path opacity="0.5" d="M130.535 60.2227L130.9 60.5755C130.751 60.8612 130.582 61.1363 130.394 61.3987C130.394 61.3987 130.171 61.187 130.042 61.0811C130.253 60.7989 130.43 60.5049 130.535 60.2227Z" fill="#1E1E1E"/>
<path opacity="0.5" d="M93.6797 169.25C93.8208 169.344 94.0325 169.391 94.103 169.556C94.1736 169.72 94.103 169.967 94.103 170.191C93.8796 170.026 93.6444 169.862 93.4092 169.72L93.6797 169.25Z" fill="#1E1E1E"/>
<path opacity="0.5" d="M15.6403 466.625C15.431 466.873 15.203 467.105 14.9582 467.319C14.9582 467.319 14.7818 466.978 14.6877 466.801C14.8931 466.557 15.1172 466.329 15.3581 466.119C15.4688 466.278 15.5633 466.447 15.6403 466.625Z" fill="#1E1E1E"/>
<path opacity="0.5" d="M108.191 481.231C108.038 481.372 107.803 481.666 107.78 481.654C107.58 481.337 107.403 480.984 107.227 480.643C107.356 480.502 107.603 480.208 107.615 480.243C107.828 480.56 108.02 480.89 108.191 481.231Z" fill="#1E1E1E"/>
<path opacity="0.5" d="M108.674 138.074C108.756 138.286 108.921 138.509 108.897 138.709C108.874 138.909 108.697 139.062 108.591 139.227C108.615 138.85 108.638 138.462 108.674 138.074Z" fill="#1E1E1E"/>
<path opacity="0.5" d="M122.151 130.536L121.81 130.136C121.939 130.018 122.068 129.806 122.198 129.83C122.327 129.853 122.421 130.077 122.527 130.23L122.151 130.536Z" fill="#1E1E1E"/>
<path opacity="0.5" d="M211.528 151.175L211.669 151.753L211.291 151.671L211.528 151.175Z" fill="#1E1E1E"/>
<path opacity="0.5" d="M164.451 53.0839C164.56 52.9912 164.674 52.9048 164.792 52.8252L164.933 53.7072C164.792 53.7072 164.639 53.7072 164.534 53.5778C164.428 53.4485 164.475 53.2603 164.451 53.0839Z" fill="#1E1E1E"/>
<path opacity="0.5" d="M33.974 12.6295L33.5624 12.8765C33.5624 12.559 33.4919 12.2179 33.4448 11.9004C33.6095 11.9004 33.7976 11.9004 33.9035 12.0533C33.9561 12.2407 33.9799 12.435 33.974 12.6295Z" fill="#1E1E1E"/>
<path opacity="0.5" d="M89.058 49.6507C88.9756 49.2509 88.9403 49.051 88.8933 48.8628L89.2696 48.71C89.2108 48.9687 89.1403 49.2274 89.058 49.6507Z" fill="#1E1E1E"/>
<path opacity="0.5" d="M88.8933 121.245C88.7516 121.188 88.6141 121.121 88.4817 121.045C88.6346 120.822 88.7875 120.587 88.9286 120.352C89.0344 120.504 89.1285 120.669 89.2226 120.822L88.8933 121.245Z" fill="#1E1E1E"/>
<path opacity="0.5" d="M152.703 323.588C152.581 323.697 152.467 323.815 152.362 323.941L152.08 323.165C152.221 323.165 152.386 323.023 152.503 323.094C152.621 323.165 152.633 323.4 152.703 323.588Z" fill="#1E1E1E"/>
<path opacity="0.5" d="M198.32 458.639C198.09 458.828 197.842 458.994 197.579 459.133C197.579 459.133 197.403 458.827 197.297 458.675C197.523 458.477 197.772 458.307 198.038 458.169C198.038 458.169 198.214 458.416 198.32 458.639Z" fill="#1E1E1E"/>
<path opacity="0.5" d="M219.195 357.388H218.888L219.042 356.963L219.195 357.388Z" fill="#1E1E1E"/>
<path opacity="0.5" d="M184.514 255.357L184.138 255.18L184.655 254.745C184.632 254.969 184.561 255.192 184.514 255.357Z" fill="#1E1E1E"/>
<path opacity="0.5" d="M166.415 278.077C166.415 277.901 166.498 277.736 166.533 277.571C166.662 277.63 166.827 277.665 166.909 277.795C166.992 277.924 166.85 278.112 166.803 278.277L166.415 278.077Z" fill="#1E1E1E"/>
<path opacity="0.5" d="M40.8655 483.924L40.5362 484.183C40.5362 483.889 40.4303 483.583 40.3833 483.301C40.5127 483.301 40.6891 483.301 40.7714 483.418C40.8537 483.536 40.8419 483.736 40.8655 483.924Z" fill="#1E1E1E"/>
<path opacity="0.5" d="M178.175 263.189C178.069 263.365 177.964 263.541 177.869 263.718C177.755 263.53 177.675 263.323 177.634 263.106C177.634 262.906 177.834 262.754 177.94 262.577C178.022 262.777 178.093 262.989 178.175 263.189Z" fill="#1E1E1E"/>
<path opacity="0.5" d="M120.716 56.1885C120.716 56.3766 120.845 56.6824 120.798 56.7294C120.677 56.8341 120.531 56.9068 120.375 56.9411C120.319 56.7618 120.288 56.576 120.281 56.3884C120.398 56.259 120.575 56.2473 120.716 56.1885Z" fill="#1E1E1E"/>
<path opacity="0.5" d="M95.3143 431.075C94.9615 429.087 94.5146 427.958 94.738 427.429C95.2836 426.39 95.955 425.423 96.7372 424.548C96.9959 425.359 97.6192 426.394 97.4546 426.959C96.8719 428.395 96.1553 429.773 95.3143 431.075Z" fill="#1E1E1E"/>
<path opacity="0.5" d="M118.576 311.452C117.752 312.816 117.223 313.71 116.67 314.592C116.259 313.945 115.389 313.075 115.494 312.663C115.774 311.617 116.266 310.64 116.941 309.794C117 309.676 117.823 310.687 118.576 311.452Z" fill="#1E1E1E"/>
<path opacity="0.5" d="M99.8301 285.262C100.196 286.123 100.479 287.017 100.677 287.931C100.677 288.19 99.7595 289.107 99.6067 288.907C99.0499 288.353 98.6449 287.664 98.4307 286.908C98.4424 286.732 99.1715 286.061 99.8301 285.262Z" fill="#1E1E1E"/>
<path opacity="0.5" d="M96.9725 305.301C96.2199 306.113 95.7965 306.818 95.2556 307.018C94.9616 307.112 94.5147 306.324 94.0796 305.936C94.3915 305.246 94.8124 304.611 95.3261 304.055C95.5966 303.89 96.1493 304.584 96.9725 305.301Z" fill="#1E1E1E"/>
<path opacity="0.5" d="M119.281 271.361C120.034 270.915 120.457 270.362 120.845 270.503C121.233 270.644 121.292 271.526 121.516 272.091C121.222 272.314 120.881 272.831 120.645 272.726C120.41 272.62 119.952 272.032 119.281 271.361Z" fill="#1E1E1E"/>
<path opacity="0.5" d="M103.24 329.609L103.77 328.433C104.087 328.762 104.405 329.091 104.699 329.42C104.464 329.762 104.252 330.279 103.993 330.35C103.734 330.42 103.487 329.879 103.24 329.609Z" fill="#1E1E1E"/>
<path opacity="0.5" d="M128.36 340.134C128.16 340.357 127.96 340.581 127.748 340.792C127.655 340.633 127.58 340.463 127.525 340.287C127.701 340.04 127.913 339.828 128.113 339.593C128.183 339.769 128.289 339.957 128.36 340.134Z" fill="#1E1E1E"/>
<path opacity="0.5" d="M187.442 384.834C187.571 384.987 187.807 385.234 187.783 385.281C187.634 385.618 187.461 385.944 187.266 386.257C187.137 386.121 187.019 385.975 186.913 385.822C187.077 385.469 187.266 385.152 187.442 384.834Z" fill="#1E1E1E"/>
<path opacity="0.5" d="M108.074 319.472L108.438 319.824C108.293 320.11 108.128 320.385 107.944 320.648C107.944 320.648 107.709 320.436 107.58 320.318C107.744 320.036 107.909 319.742 108.074 319.472Z" fill="#1E1E1E"/>
<path opacity="0.5" d="M191.934 429.992L192.287 429.722L192.428 430.616C192.299 430.616 192.134 430.616 192.029 430.498C191.923 430.38 191.97 430.169 191.934 429.992Z" fill="#1E1E1E"/>
<path opacity="0.5" d="M116.541 426.546C116.471 426.158 116.423 425.958 116.388 425.758L116.765 425.617C116.706 425.876 116.647 426.135 116.541 426.546Z" fill="#1E1E1E"/>
<path opacity="0.5" d="M98.2074 315.438C98.2074 315.627 98.3485 315.932 98.3014 315.979C98.2544 316.026 98.0192 316.121 97.8663 316.191C97.8663 316.003 97.7369 315.697 97.784 315.65C97.9053 315.546 98.0508 315.473 98.2074 315.438Z" fill="#1E1E1E"/>
<path opacity="0.5" d="M182.068 46.5577C181.927 46.5577 181.703 46.7811 181.656 46.6988C181.579 46.4909 181.531 46.2732 181.515 46.052C181.644 46.052 181.868 45.8403 181.915 45.9109C181.996 46.1182 182.048 46.3359 182.068 46.5577Z" fill="#1E1E1E"/>
<path opacity="0.5" d="M23.7077 96.29C23.803 96.4489 23.8669 96.6245 23.8959 96.8075C23.8959 96.9604 23.7312 97.1015 23.6489 97.2543C23.6724 96.9251 23.6842 96.6076 23.7077 96.29Z" fill="#1E1E1E"/>
<path opacity="0.5" d="M41.3241 4.70409L40.9007 4.88049C40.9007 4.70409 40.7714 4.41009 40.8184 4.35129C40.8654 4.29249 41.0889 4.21017 41.23 4.15137C41.2535 4.33953 41.2888 4.51593 41.3241 4.70409Z" fill="#1E1E1E"/>
<path opacity="0.5" d="M241.079 426.688C241.985 428.31 242.455 429.145 242.914 429.992C242.117 431.075 241.198 432.061 240.174 432.932C239.962 433.085 238.516 430.839 238.669 430.415C239.307 429.073 240.117 427.82 241.079 426.688Z" fill="#1E1E1E"/>
<path opacity="0.5" d="M409.142 482.23C410.059 481.301 410.788 480.196 411.023 480.396C411.798 481.032 412.353 481.896 412.611 482.865C412.74 483.383 412.023 484.371 411.694 485.159L409.142 482.23Z" fill="#1E1E1E"/>
<path opacity="0.5" d="M448.644 572.194C449.408 571.383 450.067 570.512 450.149 570.618C450.887 571.605 451.537 572.656 452.089 573.758C452.089 573.758 451.207 575.146 451.101 575.052C450.228 574.148 449.407 573.193 448.644 572.194Z" fill="#1E1E1E"/>
<path opacity="0.5" d="M525.907 549.803C526.695 550.638 527.224 551.179 527.753 551.731C527.247 552.308 526.777 553.319 526.271 553.354C525.766 553.39 525.095 552.508 524.566 552.025C524.954 551.379 525.354 550.732 525.907 549.803Z" fill="#1E1E1E"/>
<path opacity="0.5" d="M207.234 441.846C207.809 441.03 208.458 440.271 209.175 439.576C209.28 439.482 210.174 440.752 210.127 440.858C209.744 441.762 209.25 442.616 208.657 443.398C208.143 442.919 207.667 442.4 207.234 441.846Z" fill="#1E1E1E"/>
<path opacity="0.5" d="M523.319 332.702C523.09 332.894 522.841 333.063 522.579 333.207C522.52 333.207 522.39 332.901 522.296 332.737C522.523 332.55 522.768 332.384 523.025 332.243C523.084 332.208 523.214 332.537 523.319 332.702Z" fill="#1E1E1E"/>
<path opacity="0.5" d="M493.567 303.243C492.743 304.595 492.214 305.489 491.673 306.383C491.25 305.724 490.38 304.854 490.497 304.442C490.777 303.396 491.269 302.42 491.944 301.573C492.003 301.455 492.826 302.478 493.567 303.243Z" fill="#1E1E1E"/>
<path opacity="0.5" d="M474.821 277.042C475.191 277.902 475.474 278.796 475.668 279.712C475.668 279.97 474.751 280.888 474.598 280.699C474.069 280.133 473.685 279.447 473.481 278.7C473.434 278.512 474.163 277.842 474.821 277.042Z" fill="#1E1E1E"/>
<path opacity="0.5" d="M471.975 297.092C471.211 297.892 470.799 298.609 470.247 298.798C469.953 298.903 469.506 298.104 469.129 297.727C469.443 297.038 469.864 296.403 470.376 295.846C470.599 295.681 471.14 296.41 471.975 297.092Z" fill="#1E1E1E"/>
<path opacity="0.5" d="M494.284 263.153C495.037 262.695 495.46 262.142 495.836 262.283C496.213 262.424 496.295 263.318 496.507 263.883C496.213 264.106 495.872 264.612 495.648 264.518C495.248 264.341 494.919 263.812 494.284 263.153Z" fill="#1E1E1E"/>
<path opacity="0.5" d="M478.232 321.401L478.761 320.225L479.702 321.224C479.455 321.553 479.255 322.071 478.984 322.153C478.714 322.236 478.49 321.659 478.232 321.401Z" fill="#1E1E1E"/>
<path opacity="0.5" d="M503.327 331.914L502.728 332.584C502.632 332.424 502.553 332.255 502.492 332.079C502.68 331.833 502.88 331.597 503.092 331.373C503.198 331.561 503.327 331.738 503.327 331.914Z" fill="#1E1E1E"/>
<path opacity="0.5" d="M512.442 258.967C512.571 259.12 512.806 259.367 512.783 259.402C512.634 259.743 512.461 260.073 512.265 260.39C512.148 260.237 511.901 259.966 511.901 259.955C512.062 259.615 512.242 259.285 512.442 258.967Z" fill="#1E1E1E"/>
<path opacity="0.5" d="M483.065 311.252L483.43 311.605C483.284 311.89 483.119 312.165 482.936 312.428C482.936 312.428 482.7 312.216 482.571 312.11C482.747 311.828 482.912 311.534 483.065 311.252Z" fill="#1E1E1E"/>
<path opacity="0.5" d="M516.934 304.125C517.046 304.027 517.163 303.937 517.287 303.854L517.428 304.736C517.298 304.736 517.122 304.736 517.028 304.619C516.934 304.501 516.969 304.29 516.934 304.125Z" fill="#1E1E1E"/>
<path opacity="0.5" d="M441.54 300.679C441.458 300.279 441.423 300.091 441.376 299.891L441.752 299.738L441.54 300.679Z" fill="#1E1E1E"/>
<path opacity="0.5" d="M473.21 307.218C473.21 307.406 473.339 307.723 473.292 307.77C473.245 307.818 473.01 307.912 472.869 307.97C472.869 307.794 472.728 307.477 472.775 307.429C472.905 307.331 473.053 307.259 473.21 307.218Z" fill="#1E1E1E"/>
<path opacity="0.5" d="M299.174 152.257L297.281 155.408C296.857 154.75 295.999 153.879 296.105 153.468C296.389 152.424 296.881 151.448 297.551 150.598C297.61 150.528 298.433 151.504 299.174 152.257Z" fill="#1E1E1E"/>
<path opacity="0.5" d="M270.479 142.589C269.715 143.389 269.303 144.106 268.751 144.295C268.457 144.4 268.01 143.601 267.634 143.224C267.951 142.538 268.372 141.903 268.88 141.343C269.151 141.178 269.692 141.907 270.479 142.589Z" fill="#1E1E1E"/>
<path opacity="0.5" d="M276.783 166.886C276.971 166.486 277.136 166.086 277.324 165.71L278.253 166.71C278.018 167.039 277.806 167.556 277.535 167.627C277.265 167.697 277.042 167.156 276.783 166.886Z" fill="#1E1E1E"/>
<path opacity="0.5" d="M281.616 156.749C281.746 156.867 281.863 156.996 281.993 157.102C281.843 157.388 281.674 157.663 281.487 157.925C281.487 157.925 281.252 157.713 281.134 157.608L281.616 156.749Z" fill="#1E1E1E"/>
<path opacity="0.5" d="M271.761 152.715C271.761 152.903 271.903 153.209 271.855 153.268C271.808 153.326 271.561 153.409 271.42 153.467C271.42 153.291 271.279 152.974 271.326 152.927C271.456 152.828 271.604 152.756 271.761 152.715Z" fill="#1E1E1E"/>
<path opacity="0.5" d="M532.222 315.967C532.806 315.163 533.455 314.408 534.162 313.709C534.28 313.603 535.162 314.885 535.127 314.991C534.74 315.896 534.242 316.749 533.645 317.531C533.128 317.05 532.653 316.527 532.222 315.967Z" fill="#1E1E1E"/>
<path opacity="0.5" d="M400.816 515.582C402.145 515.076 402.838 514.406 403.25 514.735C403.662 515.064 403.909 516.181 404.226 516.957C403.779 517.228 403.273 517.839 402.897 517.698C402.521 517.557 401.921 516.746 400.816 515.582Z" fill="#1E1E1E"/>
<path opacity="0.5" d="M364.136 437.131C365.524 435.861 365.959 435.143 366.312 435.214C366.547 435.381 366.741 435.598 366.879 435.851C367.018 436.104 367.097 436.384 367.111 436.672C367.05 436.956 366.922 437.221 366.738 437.446C366.554 437.671 366.319 437.849 366.053 437.966C365.606 438.06 365.089 437.577 364.136 437.131Z" fill="#1E1E1E"/>
<path opacity="0.5" d="M552.931 556.589L554.272 555.413C554.542 555.973 554.751 556.561 554.895 557.165C554.895 557.401 554.354 558.118 554.201 558.024C553.716 557.605 553.288 557.122 552.931 556.589Z" fill="#1E1E1E"/>
<path opacity="0.5" d="M242.255 542.771C243.302 542.665 243.843 542.383 244.125 542.653C244.548 543.156 244.811 543.775 244.878 544.429C244.878 544.676 244.031 545.487 243.902 545.358C243.277 544.546 242.726 543.68 242.255 542.771Z" fill="#1E1E1E"/>
<path opacity="0.5" d="M555.072 542.394C554.636 541.594 554.072 541.018 554.107 540.524C554.143 540.03 554.731 539.207 555.107 539.172C555.483 539.137 556.012 540.03 556.036 540.536C556.059 541.042 555.436 541.606 555.072 542.394Z" fill="#1E1E1E"/>
<path opacity="0.5" d="M340.722 535.232C341.11 536.173 341.58 536.797 341.545 537.361C341.51 537.926 340.992 538.537 340.675 539.043C340.369 538.502 339.828 537.961 339.816 537.42C339.805 536.879 340.287 536.256 340.722 535.232Z" fill="#1E1E1E"/>
<path opacity="0.5" d="M497.977 567.784C497.483 567.02 496.871 566.443 496.93 566.055C497.117 565.317 497.414 564.611 497.812 563.962C498.171 564.501 498.434 565.097 498.588 565.726C498.498 566.441 498.291 567.136 497.977 567.784Z" fill="#1E1E1E"/>
<path opacity="0.5" d="M464.143 491.979C464.624 492.657 465.019 493.392 465.319 494.167C465.378 494.426 464.614 495.519 464.437 495.413C463.87 495.036 463.421 494.506 463.143 493.885C463.401 493.213 463.737 492.573 464.143 491.979Z" fill="#1E1E1E"/>
<path opacity="0.5" d="M401.862 587.882C402.042 587.44 402.255 587.012 402.497 586.601C402.901 586.919 403.275 587.273 403.614 587.659C403.426 588.012 403.203 588.706 403.05 588.67C402.61 588.481 402.208 588.214 401.862 587.882Z" fill="#1E1E1E"/>
<path opacity="0.5" d="M411.917 551.274C412.47 550.662 412.846 549.874 413.211 549.886C413.575 549.898 413.881 550.78 414.21 551.25C413.881 551.732 413.552 552.579 413.211 552.602C412.87 552.626 412.458 551.862 411.917 551.274Z" fill="#1E1E1E"/>
<path opacity="0.5" d="M406.507 521.297C406.754 522.191 407.142 523.037 407.025 523.249C406.882 523.454 406.699 523.628 406.487 523.76C406.274 523.891 406.037 523.977 405.79 524.013C405.649 524.013 405.226 523.096 405.296 522.955C405.647 522.366 406.053 521.811 406.507 521.297Z" fill="#1E1E1E"/>
<path opacity="0.5" d="M490.25 511.419C490.838 510.948 491.226 510.643 491.603 510.325C491.782 510.926 491.888 511.546 491.92 512.171C491.92 512.489 491.321 513.065 491.238 512.983C490.858 512.495 490.527 511.971 490.25 511.419Z" fill="#1E1E1E"/>
<path opacity="0.5" d="M488.251 486.523C488.318 486.111 488.453 485.714 488.651 485.347C488.769 485.217 489.345 485.594 489.357 485.794C489.318 486.198 489.218 486.595 489.063 486.97L488.251 486.523Z" fill="#1E1E1E"/>
<path opacity="0.5" d="M567.008 514.218L567.702 513.406C567.855 513.794 568.031 514.171 568.149 514.582C568.149 514.641 567.831 515.029 567.749 514.982C567.478 514.751 567.23 514.495 567.008 514.218Z" fill="#1E1E1E"/>
<path opacity="0.5" d="M340.757 531.81L340.487 532.328C340.287 532.081 340.087 531.846 339.911 531.587C339.911 531.587 340.075 531.246 340.158 531.069L340.757 531.81Z" fill="#1E1E1E"/>
<path opacity="0.5" d="M516.993 444.869C516.699 444.68 516.263 444.598 516.158 444.269C516.052 443.939 516.358 443.457 516.475 443.093C516.757 443.293 517.181 443.387 517.31 443.728C517.44 444.069 517.11 444.457 516.993 444.869Z" fill="#1E1E1E"/>
<path opacity="0.5" d="M522.144 521.45C522.273 521.309 522.508 521.015 522.532 521.062C522.728 521.357 522.909 521.664 523.073 521.979C522.799 522.046 522.519 522.085 522.238 522.096C522.183 521.885 522.152 521.668 522.144 521.45Z" fill="#1E1E1E"/>
<path opacity="0.5" d="M519.862 534.856C520.003 534.751 520.156 534.562 520.297 534.586C520.438 534.61 520.462 534.904 520.544 535.08C520.321 535.209 520.086 535.35 519.862 535.503V534.856Z" fill="#1E1E1E"/>
<path opacity="0.5" d="M273.643 576.122C273.349 575.922 272.961 575.839 272.808 575.51C272.772 575.113 272.89 574.717 273.137 574.405C273.384 574.311 273.714 574.675 273.996 574.84L273.643 576.122Z" fill="#1E1E1E"/>
<path opacity="0.5" d="M466.178 471.846C466.283 472.01 466.401 472.151 466.507 472.304L465.86 472.845C465.794 472.632 465.762 472.41 465.766 472.187C465.825 472.022 466.037 471.94 466.178 471.846Z" fill="#1E1E1E"/>
<path opacity="0.5" d="M447.808 441.211C448.044 440.976 448.255 440.706 448.491 440.506C448.597 440.68 448.691 440.86 448.773 441.047C448.56 441.285 448.332 441.509 448.091 441.717C448.091 441.717 447.914 441.388 447.808 441.211Z" fill="#1E1E1E"/>
<path opacity="0.5" d="M355.269 426.605C355.41 426.452 355.645 426.158 355.669 426.182C355.869 426.499 356.033 426.852 356.233 427.193C356.092 427.334 355.845 427.617 355.822 427.593C355.619 427.275 355.434 426.945 355.269 426.605Z" fill="#1E1E1E"/>
<path opacity="0.5" d="M310.746 584.26L311.099 583.896L311.381 584.672C311.24 584.672 311.075 584.813 310.957 584.742C310.84 584.672 310.816 584.472 310.746 584.26Z" fill="#1E1E1E"/>
<path opacity="0.5" d="M265.14 449.231C265.373 449.052 265.617 448.887 265.87 448.737C265.87 448.737 266.046 449.043 266.164 449.208C265.931 449.402 265.678 449.571 265.411 449.713C265.411 449.713 265.234 449.408 265.14 449.231Z" fill="#1E1E1E"/>
<path opacity="0.5" d="M244.266 550.438L244.562 550.462L244.408 550.875L244.266 550.438Z" fill="#1E1E1E"/>
<path opacity="0.5" d="M530.258 543.593C530.154 543.425 530.086 543.237 530.058 543.041C530.058 542.864 530.234 542.747 530.34 542.594C530.305 542.923 530.281 543.311 530.258 543.593Z" fill="#1E1E1E"/>
<path opacity="0.5" d="M422.583 423.924L422.924 423.642C422.924 423.947 423.03 424.241 423.065 424.535C422.936 424.535 422.771 424.535 422.677 424.418C422.583 424.3 422.619 424.089 422.583 423.924Z" fill="#1E1E1E"/>
<path opacity="0.5" d="M320.518 386.021C320.871 387.997 321.318 389.126 321.095 389.655C320.543 390.691 319.872 391.658 319.095 392.537C318.837 391.713 318.225 390.69 318.378 390.185C318.955 388.731 319.672 387.337 320.518 386.021Z" fill="#1E1E1E"/>
<path opacity="0.5" d="M294.882 478.714C295.705 477.362 296.246 476.468 296.775 475.574C297.21 476.233 298.068 477.103 297.951 477.515C297.662 478.56 297.17 479.539 296.504 480.396C296.457 480.502 295.622 479.49 294.882 478.714Z" fill="#1E1E1E"/>
<path opacity="0.5" d="M266.011 414.163C265.645 413.302 265.361 412.408 265.164 411.493C265.164 411.246 266.081 410.317 266.234 410.505C266.778 411.07 267.181 411.755 267.41 412.505C267.398 412.705 266.669 413.375 266.011 414.163Z" fill="#1E1E1E"/>
<path opacity="0.5" d="M268.857 394.124C269.621 393.324 270.033 392.595 270.585 392.407C270.879 392.301 271.326 393.101 271.703 393.477C271.385 394.164 270.964 394.798 270.456 395.359C270.233 395.535 269.692 394.794 268.857 394.124Z" fill="#1E1E1E"/>
<path opacity="0.5" d="M294.164 518.815C293.411 519.262 292.988 519.827 292.612 519.674C292.235 519.521 292.165 518.651 291.941 518.086C292.235 517.863 292.576 517.357 292.812 517.451C293.047 517.545 293.529 518.145 294.164 518.815Z" fill="#1E1E1E"/>
<path opacity="0.5" d="M262.6 369.816C262.424 370.204 262.247 370.628 262.071 370.992L261.119 369.993C261.365 369.663 261.577 369.146 261.848 369.076C262.118 369.005 262.342 369.558 262.6 369.816Z" fill="#1E1E1E"/>
<path opacity="0.5" d="M285.097 450.043C285.297 449.82 285.497 449.585 285.709 449.373C285.795 449.536 285.869 449.705 285.932 449.879C285.748 450.127 285.548 450.363 285.332 450.584L285.097 450.043Z" fill="#1E1E1E"/>
<path opacity="0.5" d="M276.018 523.002C275.877 522.849 275.642 522.59 275.666 522.555C275.819 522.216 275.992 521.887 276.183 521.567C276.312 521.732 276.548 522.002 276.536 522.014C276.359 522.355 276.195 522.685 276.018 523.002Z" fill="#1E1E1E"/>
<path opacity="0.5" d="M257.755 379.953L257.391 379.6C257.537 379.317 257.706 379.046 257.896 378.789C257.896 378.789 258.132 378.977 258.249 379.095L257.755 379.953Z" fill="#1E1E1E"/>
<path opacity="0.5" d="M271.514 477.856L271.173 478.114C271.173 477.82 271.079 477.515 271.02 477.221C271.162 477.221 271.326 477.221 271.42 477.35C271.484 477.511 271.516 477.683 271.514 477.856Z" fill="#1E1E1E"/>
<path opacity="0.5" d="M299.291 390.525C299.362 390.913 299.397 391.113 299.444 391.325L299.08 391.478C299.139 391.208 299.197 390.937 299.291 390.525Z" fill="#1E1E1E"/>
<path opacity="0.5" d="M267.622 383.987C267.573 383.81 267.542 383.629 267.528 383.446C267.655 383.343 267.804 383.271 267.963 383.234C267.963 383.423 268.104 383.728 268.057 383.787C268.01 383.846 267.775 383.916 267.622 383.987Z" fill="#1E1E1E"/>
<path opacity="0.5" d="M81.1434 557.318C81.755 559.353 82.4018 560.47 82.3194 561.375C82.2371 562.281 81.261 562.798 80.6848 563.492C80.3437 562.704 79.7087 561.869 79.7675 561.14C80.0688 559.815 80.5308 558.532 81.1434 557.318Z" fill="#1E1E1E"/>
<path opacity="0.5" d="M11.042 547.887L9.40737 548.992C9.21931 548.482 9.06608 547.959 8.94873 547.428C9.46383 546.985 10.0189 546.592 10.6069 546.252C10.6892 546.652 10.8068 547.075 11.042 547.887Z" fill="#1E1E1E"/>
<path opacity="0.5" d="M42.5706 520.051C42.0061 520.674 41.6063 521.462 41.2417 521.415C40.8771 521.368 40.5361 520.545 40.1951 520.051C40.5361 519.557 40.8771 518.71 41.2417 518.698C41.6063 518.687 42.0061 519.439 42.5706 520.051Z" fill="#1E1E1E"/>
<path opacity="0.5" d="M142.578 581.567C142.954 582.179 143.248 582.661 143.554 583.131L142.178 584.766C141.907 584.225 141.366 583.59 141.437 583.167C141.508 582.743 142.084 582.202 142.578 581.567Z" fill="#1E1E1E"/>
<path opacity="0.5" d="M106.157 364.76L107.333 366.394C107.053 366.907 106.713 367.384 106.322 367.817C106.228 367.911 105.593 367.276 105.593 366.982C105.703 366.224 105.892 365.479 106.157 364.76Z" fill="#1E1E1E"/>
<path opacity="0.5" d="M113.131 540.184C112.825 539.008 112.449 538.291 112.566 537.832C112.684 537.373 113.307 537.15 113.742 537.032C113.999 537.372 114.143 537.783 114.154 538.208C113.895 538.906 113.552 539.57 113.131 540.184Z" fill="#1E1E1E"/>
<path opacity="0.5" d="M108.674 519.063L107.262 520.239C107.009 519.728 106.812 519.192 106.674 518.639C106.674 518.463 107.192 517.828 107.403 517.887C107.615 517.945 108.086 518.51 108.674 519.063Z" fill="#1E1E1E"/>
<path opacity="0.5" d="M51.1438 561.245L51.7553 560.328C51.9498 560.676 52.1188 561.038 52.261 561.41C52.261 561.492 51.9905 561.939 51.9435 561.916C51.6585 561.715 51.391 561.491 51.1438 561.245Z" fill="#1E1E1E"/>
<path opacity="0.5" d="M30.4578 508.784L29.5993 509.219C29.5053 508.831 29.2701 508.326 29.3524 508.043C29.4347 507.761 29.9286 507.502 30.1285 507.62C30.3285 507.738 30.352 508.384 30.4578 508.784Z" fill="#1E1E1E"/>
<path opacity="0.5" d="M98.3247 469.282L98.9833 470.164L97.9719 471.34C97.7917 470.941 97.6727 470.517 97.6191 470.082C97.6779 469.741 98.0778 469.529 98.3247 469.282Z" fill="#1E1E1E"/>
<path opacity="0.5" d="M20.8498 553.014L21.1909 553.39C21.038 553.672 20.8734 553.966 20.7087 554.213C20.7087 554.213 20.497 553.99 20.3677 553.86L20.8498 553.014Z" fill="#1E1E1E"/>
<path opacity="0.5" d="M129.712 534.503C129.642 534.715 129.618 535.009 129.512 535.115C129.407 535.221 129.207 535.115 129.042 535.115L129.36 534.115L129.712 534.503Z" fill="#1E1E1E"/>
<path opacity="0.5" d="M161.112 499.094C160.935 498.741 160.747 498.377 160.571 498C160.818 497.754 161.1 497.271 161.311 497.33C161.523 497.389 161.829 498.012 161.794 498.318C161.758 498.624 161.37 498.835 161.112 499.094Z" fill="#1E1E1E"/>
<path opacity="0.5" d="M49.2739 498.247C49.3681 498.412 49.4468 498.585 49.5091 498.764C49.3209 499.035 49.0975 499.258 48.8976 499.494C48.7977 499.328 48.7187 499.15 48.6624 498.964C48.8505 498.706 49.0739 498.482 49.2739 498.247Z" fill="#1E1E1E"/>
<path opacity="0.5" d="M220.3 481.395L220.758 481.137C220.758 481.49 220.758 481.842 220.758 482.195C220.617 482.195 220.405 482.195 220.311 482.019C220.217 481.842 220.311 481.607 220.3 481.395Z" fill="#1E1E1E"/>
<path opacity="0.5" d="M93.0445 488.04C92.9269 487.617 92.7975 487.205 92.6799 486.805C92.9739 486.652 93.3032 486.299 93.5502 486.405C93.7972 486.511 93.7972 487.111 93.9148 487.499C93.6325 487.687 93.3385 487.863 93.0445 488.04Z" fill="#1E1E1E"/>
<path opacity="0.5" d="M85.3889 580.227C85.5418 580.156 85.7182 580.003 85.824 580.074C85.9299 580.144 86.0239 580.415 86.118 580.603L85.4477 580.897C85.436 580.662 85.4124 580.45 85.3889 580.227Z" fill="#1E1E1E"/>
<path opacity="0.5" d="M246.371 446.985L246.748 447.268L246.207 447.891C246.12 447.721 246.06 447.538 246.03 447.35C246.066 447.197 246.266 447.115 246.371 446.985Z" fill="#1E1E1E"/>
<path opacity="0.5" d="M8.02178 578.757C7.85648 578.757 7.69118 578.627 7.52588 578.568L7.97455 578.828L8.02178 578.757Z" fill="#1E1E1E"/>
</g>
<path d="M355.869 397.57C355.869 403.52 328.162 408.342 293.999 408.342C259.837 408.342 232.13 403.52 232.13 397.57C232.13 391.619 259.895 386.81 293.999 386.81C328.103 386.81 355.869 391.608 355.869 397.57Z" fill="#B9DBBE"/>
<path d="M293.999 361.067C352.453 361.067 399.839 313.68 399.839 255.227C399.839 196.773 352.453 149.387 293.999 149.387C235.546 149.387 188.159 196.773 188.159 255.227C188.159 313.68 235.546 361.067 293.999 361.067Z" fill="#DF873E"/>
<path d="M294 352.353C347.641 352.353 391.125 308.869 391.125 255.227C391.125 201.586 347.641 158.102 294 158.102C240.358 158.102 196.874 201.586 196.874 255.227C196.874 308.869 240.358 352.353 294 352.353Z" fill="#EEBE43"/>
<g opacity="0.3">
<path opacity="0.3" d="M294 262.753C298.156 262.753 301.526 259.383 301.526 255.227C301.526 251.07 298.156 247.7 294 247.7C289.843 247.7 286.473 251.07 286.473 255.227C286.473 259.383 289.843 262.753 294 262.753Z" fill="white"/>
<path opacity="0.3" d="M293.023 256.285L340.063 299.797C372.874 329.091 373.756 328.139 342.015 297.692L294.975 254.121L247.935 210.609C215.125 181.315 214.243 182.267 245.983 212.714L293.023 256.285Z" fill="white"/>
<path opacity="0.3" d="M295.058 256.203L338.57 209.163C367.852 176.34 366.911 175.458 336.453 207.199L292.941 254.239L249.429 301.279C220.147 334.101 221.087 334.983 251.546 303.231L295.058 256.203Z" fill="white"/>
<path opacity="0.3" d="M293.999 256.673H358.15C402.133 255.885 402.133 254.592 358.15 253.792H229.849C185.866 254.592 185.866 255.885 229.849 256.673H293.999Z" fill="white"/>
<path opacity="0.3" d="M295.434 255.191V191.076C294.646 147.105 293.353 147.105 292.565 191.076V319.389C293.353 363.36 294.646 363.36 295.434 319.389V255.191Z" fill="white"/>
</g>
<path d="M355.869 291.107C351.98 291.104 348.252 289.557 345.503 286.808C342.753 284.059 341.207 280.33 341.204 276.442C341.183 276.172 341.218 275.901 341.307 275.645C341.396 275.389 341.537 275.155 341.721 274.956C341.905 274.757 342.128 274.599 342.376 274.491C342.624 274.382 342.891 274.326 343.162 274.326C343.433 274.326 343.701 274.382 343.949 274.491C344.197 274.599 344.42 274.757 344.604 274.956C344.787 275.155 344.928 275.389 345.017 275.645C345.106 275.901 345.141 276.172 345.12 276.442C345.073 277.883 345.315 279.318 345.834 280.663C346.352 282.008 347.136 283.235 348.138 284.271C349.14 285.307 350.341 286.131 351.668 286.693C352.995 287.256 354.422 287.546 355.863 287.546C357.304 287.546 358.731 287.256 360.058 286.693C361.385 286.131 362.586 285.307 363.588 284.271C364.59 283.235 365.374 282.008 365.892 280.663C366.411 279.318 366.653 277.883 366.606 276.442C366.606 276.184 366.657 275.929 366.755 275.69C366.854 275.452 366.999 275.236 367.181 275.053C367.363 274.871 367.58 274.726 367.818 274.628C368.056 274.529 368.312 274.478 368.57 274.478C368.828 274.478 369.083 274.529 369.321 274.628C369.56 274.726 369.776 274.871 369.958 275.053C370.141 275.236 370.285 275.452 370.384 275.69C370.483 275.929 370.534 276.184 370.534 276.442C370.527 280.329 368.98 284.056 366.232 286.805C363.483 289.553 359.756 291.1 355.869 291.107Z" fill="#955322"/>
<path d="M232.142 291.107C228.252 291.104 224.523 289.558 221.772 286.809C219.02 284.06 217.472 280.331 217.465 276.442C217.465 275.921 217.672 275.422 218.041 275.053C218.409 274.685 218.909 274.478 219.429 274.478C219.95 274.478 220.45 274.685 220.818 275.053C221.186 275.422 221.393 275.921 221.393 276.442C221.346 277.883 221.588 279.318 222.107 280.663C222.625 282.008 223.409 283.235 224.411 284.271C225.413 285.307 226.614 286.131 227.941 286.693C229.268 287.256 230.695 287.546 232.136 287.546C233.578 287.546 235.004 287.256 236.331 286.693C237.658 286.131 238.859 285.307 239.861 284.271C240.863 283.235 241.647 282.008 242.165 280.663C242.684 279.318 242.926 277.883 242.879 276.442C242.858 276.172 242.893 275.901 242.982 275.645C243.071 275.389 243.212 275.155 243.395 274.956C243.579 274.757 243.802 274.599 244.05 274.491C244.298 274.382 244.566 274.326 244.837 274.326C245.108 274.326 245.375 274.382 245.623 274.491C245.871 274.599 246.094 274.757 246.278 274.956C246.462 275.155 246.603 275.389 246.692 275.645C246.781 275.901 246.816 276.172 246.795 276.442C246.792 280.328 245.247 284.055 242.5 286.804C239.753 289.553 236.028 291.1 232.142 291.107Z" fill="#955322"/>
<path d="M308.464 311.075H279.535C279.191 311.077 278.851 311.01 278.534 310.88C278.216 310.749 277.928 310.557 277.685 310.314C277.442 310.071 277.25 309.783 277.119 309.466C276.989 309.148 276.922 308.808 276.924 308.465C276.802 306.15 277.153 303.835 277.955 301.66C278.757 299.485 279.994 297.497 281.589 295.815C283.184 294.134 285.105 292.795 287.235 291.88C289.365 290.965 291.658 290.493 293.976 290.493C296.294 290.493 298.587 290.965 300.717 291.88C302.846 292.795 304.767 294.134 306.363 295.815C307.958 297.497 309.195 299.485 309.997 301.66C310.799 303.835 311.15 306.15 311.028 308.465C311.031 309.15 310.763 309.809 310.283 310.298C309.803 310.787 309.149 311.066 308.464 311.075Z" fill="#955322"/>
<path d="M268.186 353.035H262.965V392.031H268.186V353.035Z" fill="#DF873E"/>
<path d="M273.419 397.264H257.743C257.397 397.264 257.065 397.127 256.82 396.882C256.576 396.637 256.438 396.305 256.438 395.959C256.394 394.73 256.598 393.506 257.037 392.358C257.477 391.21 258.144 390.163 258.997 389.278C259.85 388.394 260.873 387.69 262.005 387.21C263.136 386.729 264.352 386.481 265.581 386.481C266.811 386.481 268.027 386.729 269.158 387.21C270.29 387.69 271.312 388.394 272.166 389.278C273.019 390.163 273.686 391.21 274.125 392.358C274.565 393.506 274.769 394.73 274.725 395.959C274.725 396.305 274.587 396.637 274.342 396.882C274.098 397.127 273.766 397.264 273.419 397.264Z" fill="#DF873E"/>
<path d="M325.022 353.035H319.801V392.031H325.022V353.035Z" fill="#DF873E"/>
<path d="M330.256 397.264H314.58C314.233 397.264 313.901 397.127 313.657 396.882C313.412 396.637 313.274 396.305 313.274 395.959C313.23 394.73 313.434 393.506 313.874 392.358C314.313 391.21 314.98 390.163 315.833 389.278C316.687 388.394 317.709 387.69 318.841 387.21C319.972 386.729 321.188 386.481 322.418 386.481C323.647 386.481 324.863 386.729 325.994 387.21C327.126 387.69 328.149 388.394 329.002 389.278C329.855 390.163 330.522 391.21 330.962 392.358C331.401 393.506 331.605 394.73 331.561 395.959C331.561 396.305 331.423 396.637 331.179 396.882C330.934 397.127 330.602 397.264 330.256 397.264Z" fill="#DF873E"/>
<path d="M208.939 358.244C212.187 358.244 214.819 355.612 214.819 352.364C214.819 349.117 212.187 346.484 208.939 346.484C205.692 346.484 203.059 349.117 203.059 352.364C203.059 355.612 205.692 358.244 208.939 358.244Z" fill="#DF873E"/>
<path d="M214.819 354.563C216.034 354.563 217.019 353.579 217.019 352.364C217.019 351.15 216.034 350.165 214.819 350.165C213.605 350.165 212.62 351.15 212.62 352.364C212.62 353.579 213.605 354.563 214.819 354.563Z" fill="#DF873E"/>
<path d="M208.939 308.441V352.577" stroke="#E38038" stroke-width="4" stroke-miterlimit="10"/>
<path d="M379.048 358.244C382.295 358.244 384.928 355.612 384.928 352.364C384.928 349.117 382.295 346.484 379.048 346.484C375.8 346.484 373.168 349.117 373.168 352.364C373.168 355.612 375.8 358.244 379.048 358.244Z" fill="#DF873E"/>
<path d="M373.168 354.563C374.382 354.563 375.367 353.579 375.367 352.364C375.367 351.15 374.382 350.165 373.168 350.165C371.953 350.165 370.969 351.15 370.969 352.364C370.969 353.579 371.953 354.563 373.168 354.563Z" fill="#DF873E"/>
<path d="M379.048 308.441V352.577" stroke="#E38038" stroke-width="4" stroke-miterlimit="10"/>
<path d="M154.949 400.734H111.802C111.532 400.754 111.261 400.719 111.005 400.63C110.749 400.542 110.515 400.401 110.316 400.217C110.117 400.033 109.959 399.81 109.85 399.562C109.742 399.314 109.686 399.046 109.686 398.775C109.686 398.505 109.742 398.237 109.85 397.989C109.959 397.741 110.117 397.518 110.316 397.334C110.515 397.15 110.749 397.009 111.005 396.92C111.261 396.832 111.532 396.796 111.802 396.817H154.949C155.442 396.856 155.903 397.079 156.239 397.442C156.575 397.804 156.761 398.281 156.761 398.775C156.761 399.27 156.575 399.746 156.239 400.109C155.903 400.472 155.442 400.695 154.949 400.734Z" fill="#B9DBBE"/>
<path d="M99.5244 400.734H87.6585C87.3886 400.754 87.1173 400.719 86.8616 400.63C86.6059 400.542 86.3714 400.401 86.1727 400.217C85.974 400.033 85.8155 399.81 85.7071 399.562C85.5987 399.314 85.5427 399.046 85.5427 398.775C85.5427 398.505 85.5987 398.237 85.7071 397.989C85.8155 397.741 85.974 397.518 86.1727 397.334C86.3714 397.15 86.6059 397.009 86.8616 396.92C87.1173 396.832 87.3886 396.796 87.6585 396.817H99.5244C99.7942 396.796 100.066 396.832 100.321 396.92C100.577 397.009 100.811 397.15 101.01 397.334C101.209 397.518 101.367 397.741 101.476 397.989C101.584 398.237 101.64 398.505 101.64 398.775C101.64 399.046 101.584 399.314 101.476 399.562C101.367 399.81 101.209 400.033 101.01 400.217C100.811 400.401 100.577 400.542 100.321 400.63C100.066 400.719 99.7942 400.754 99.5244 400.734Z" fill="#B9DBBE"/>
<path d="M200.331 400.734H170.226C169.956 400.754 169.684 400.719 169.429 400.63C169.173 400.542 168.938 400.401 168.74 400.217C168.541 400.033 168.383 399.81 168.274 399.562C168.166 399.314 168.11 399.046 168.11 398.775C168.11 398.505 168.166 398.237 168.274 397.989C168.383 397.741 168.541 397.518 168.74 397.334C168.938 397.15 169.173 397.009 169.429 396.92C169.684 396.832 169.956 396.796 170.226 396.817H200.331C200.824 396.856 201.285 397.079 201.621 397.442C201.957 397.804 202.143 398.281 202.143 398.775C202.143 399.27 201.957 399.746 201.621 400.109C201.285 400.472 200.824 400.695 200.331 400.734Z" fill="#B9DBBE"/>
<path d="M473.586 400.734H420.384C419.891 400.695 419.431 400.472 419.095 400.109C418.759 399.746 418.572 399.27 418.572 398.775C418.572 398.281 418.759 397.804 419.095 397.442C419.431 397.079 419.891 396.856 420.384 396.817H473.586C473.856 396.796 474.128 396.832 474.383 396.92C474.639 397.009 474.874 397.15 475.072 397.334C475.271 397.518 475.429 397.741 475.538 397.989C475.646 398.237 475.702 398.505 475.702 398.775C475.702 399.046 475.646 399.314 475.538 399.562C475.429 399.81 475.271 400.033 475.072 400.217C474.874 400.401 474.639 400.542 474.383 400.63C474.128 400.719 473.856 400.754 473.586 400.734Z" fill="#B9DBBE"/>
<path d="M500.34 400.734H485.852C485.359 400.695 484.899 400.472 484.563 400.109C484.227 399.746 484.04 399.27 484.04 398.775C484.04 398.281 484.227 397.804 484.563 397.442C484.899 397.079 485.359 396.856 485.852 396.817H500.34C500.61 396.796 500.882 396.832 501.137 396.92C501.393 397.009 501.628 397.15 501.826 397.334C502.025 397.518 502.183 397.741 502.292 397.989C502.4 398.237 502.456 398.505 502.456 398.775C502.456 399.046 502.4 399.314 502.292 399.562C502.183 399.81 502.025 400.033 501.826 400.217C501.628 400.401 501.393 400.542 501.137 400.63C500.882 400.719 500.61 400.754 500.34 400.734Z" fill="#B9DBBE"/>
<path d="M404.779 400.734H371.698C371.428 400.754 371.157 400.719 370.901 400.63C370.645 400.542 370.411 400.401 370.212 400.217C370.013 400.033 369.855 399.81 369.746 399.562C369.638 399.314 369.582 399.046 369.582 398.775C369.582 398.505 369.638 398.237 369.746 397.989C369.855 397.741 370.013 397.518 370.212 397.334C370.411 397.15 370.645 397.009 370.901 396.92C371.157 396.832 371.428 396.796 371.698 396.817H404.779C405.049 396.796 405.32 396.832 405.576 396.92C405.831 397.009 406.066 397.15 406.265 397.334C406.463 397.518 406.622 397.741 406.73 397.989C406.839 398.237 406.895 398.505 406.895 398.775C406.895 399.046 406.839 399.314 406.73 399.562C406.622 399.81 406.463 400.033 406.265 400.217C406.066 400.401 405.831 400.542 405.576 400.63C405.32 400.719 405.049 400.754 404.779 400.734Z" fill="#B9DBBE"/>
<path d="M371.698 426.111H287.026C286.756 426.132 286.485 426.097 286.229 426.008C285.973 425.92 285.739 425.779 285.54 425.595C285.341 425.411 285.183 425.188 285.074 424.94C284.966 424.692 284.91 424.424 284.91 424.153C284.91 423.883 284.966 423.615 285.074 423.367C285.183 423.119 285.341 422.896 285.54 422.712C285.739 422.528 285.973 422.387 286.229 422.298C286.485 422.209 286.756 422.174 287.026 422.195H371.698C371.968 422.174 372.239 422.209 372.495 422.298C372.75 422.387 372.985 422.528 373.184 422.712C373.382 422.896 373.541 423.119 373.649 423.367C373.758 423.615 373.814 423.883 373.814 424.153C373.814 424.424 373.758 424.692 373.649 424.94C373.541 425.188 373.382 425.411 373.184 425.595C372.985 425.779 372.75 425.92 372.495 426.008C372.239 426.097 371.968 426.132 371.698 426.111Z" fill="#B9DBBE"/>
<path d="M293.153 453.865H232.53C232.272 453.865 232.017 453.814 231.778 453.716C231.54 453.617 231.324 453.472 231.141 453.29C230.959 453.108 230.814 452.891 230.716 452.653C230.617 452.415 230.566 452.159 230.566 451.901C230.566 451.643 230.617 451.388 230.716 451.15C230.814 450.912 230.959 450.695 231.141 450.513C231.324 450.33 231.54 450.186 231.778 450.087C232.017 449.988 232.272 449.937 232.53 449.938H293.153C293.411 449.937 293.666 449.988 293.904 450.087C294.143 450.186 294.359 450.33 294.541 450.513C294.724 450.695 294.869 450.912 294.967 451.15C295.066 451.388 295.117 451.643 295.117 451.901C295.117 452.159 295.066 452.415 294.967 452.653C294.869 452.891 294.724 453.108 294.541 453.29C294.359 453.472 294.143 453.617 293.904 453.716C293.666 453.814 293.411 453.865 293.153 453.865Z" fill="#B9DBBE"/>
<path d="M219.03 426.111H172.119C171.849 426.132 171.578 426.097 171.322 426.008C171.066 425.92 170.832 425.779 170.633 425.595C170.434 425.411 170.276 425.188 170.167 424.94C170.059 424.692 170.003 424.424 170.003 424.153C170.003 423.883 170.059 423.615 170.167 423.367C170.276 423.119 170.434 422.896 170.633 422.712C170.832 422.528 171.066 422.387 171.322 422.298C171.578 422.209 171.849 422.174 172.119 422.195H219.03C219.299 422.174 219.571 422.209 219.826 422.298C220.082 422.387 220.317 422.528 220.515 422.712C220.714 422.896 220.873 423.119 220.981 423.367C221.089 423.615 221.145 423.883 221.145 424.153C221.145 424.424 221.089 424.692 220.981 424.94C220.873 425.188 220.714 425.411 220.515 425.595C220.317 425.779 220.082 425.92 219.826 426.008C219.571 426.097 219.299 426.132 219.03 426.111Z" fill="#B9DBBE"/>
<path d="M248.594 426.111H234.482C234.212 426.132 233.941 426.097 233.685 426.008C233.43 425.92 233.195 425.779 232.996 425.595C232.798 425.411 232.639 425.188 232.531 424.94C232.422 424.692 232.366 424.424 232.366 424.153C232.366 423.883 232.422 423.615 232.531 423.367C232.639 423.119 232.798 422.896 232.996 422.712C233.195 422.528 233.43 422.387 233.685 422.298C233.941 422.209 234.212 422.174 234.482 422.195H248.594C248.864 422.174 249.135 422.209 249.391 422.298C249.647 422.387 249.881 422.528 250.08 422.712C250.279 422.896 250.437 423.119 250.546 423.367C250.654 423.615 250.71 423.883 250.71 424.153C250.71 424.424 250.654 424.692 250.546 424.94C250.437 425.188 250.279 425.411 250.08 425.595C249.881 425.779 249.647 425.92 249.391 426.008C249.135 426.097 248.864 426.132 248.594 426.111Z" fill="#B9DBBE"/>
<path d="M404.614 426.111H390.432C389.938 426.073 389.478 425.85 389.142 425.487C388.806 425.124 388.62 424.648 388.62 424.153C388.62 423.659 388.806 423.182 389.142 422.819C389.478 422.456 389.938 422.234 390.432 422.195H404.543C404.813 422.174 405.085 422.209 405.34 422.298C405.596 422.387 405.831 422.528 406.029 422.712C406.228 422.896 406.386 423.119 406.495 423.367C406.603 423.615 406.659 423.883 406.659 424.153C406.659 424.424 406.603 424.692 406.495 424.94C406.386 425.188 406.228 425.411 406.029 425.595C405.831 425.779 405.596 425.92 405.34 426.008C405.085 426.097 404.813 426.132 404.543 426.111H404.614Z" fill="#B9DBBE"/>
<path d="M338.523 453.865H324.411C323.89 453.865 323.39 453.658 323.022 453.29C322.654 452.922 322.447 452.422 322.447 451.901C322.447 451.381 322.654 450.881 323.022 450.513C323.39 450.144 323.89 449.938 324.411 449.938H338.523C339.044 449.938 339.543 450.144 339.912 450.513C340.28 450.881 340.487 451.381 340.487 451.901C340.487 452.422 340.28 452.922 339.912 453.29C339.543 453.658 339.044 453.865 338.523 453.865Z" fill="#B9DBBE"/>
</g>
<defs>
<clipPath id="clip0">
<rect width="588" height="588" fill="white" transform="translate(-0.000488281)"/>
</clipPath>
</defs>
</svg>
